<svg width="292" height="370" viewBox="0 0 292 370" fill="none" xmlns="http://www.w3.org/2000/svg">
<path d="M63.2016 0H11.2716C9.88327 0 8.75781 1.12546 8.75781 2.51377V54.4438C8.75781 55.8321 9.88327 56.9576 11.2716 56.9576H63.2016C64.5899 56.9576 65.7154 55.8321 65.7154 54.4438V2.51377C65.7154 1.12546 64.5899 0 63.2016 0Z" fill="#F0F0F0"/>
<path d="M53.8769 14.0586H53.8129C51.8842 14.0586 50.3211 14.1774 50.3211 14.3328C51.3424 14.5873 52.3973 14.6798 53.4473 14.6071C53.2736 14.7899 53.0177 15.055 52.6977 15.4115L49.9554 18.5194L40.8144 29.0133L36.9661 26.4081C36.2805 25.9602 35.6041 25.494 34.9733 25.0826L34.7631 24.9547L34.6077 25.1375C30.54 29.8908 26.9384 34.1414 24.3698 37.2127L21.3624 40.8691C20.9749 41.2942 20.6261 41.7531 20.3203 42.2403C20.7473 41.8667 21.1475 41.4635 21.5178 41.0337L24.6531 37.5052C27.2583 34.5344 30.8507 30.3936 34.8636 25.7225L36.6918 26.92L40.7413 29.6074L40.9424 29.7445L41.0978 29.5617L50.2388 18.7662L52.8805 15.5577C53.2279 15.1372 53.4656 14.8264 53.6118 14.6436H53.6575C53.5799 15.7022 53.6694 16.7665 53.9226 17.7973C54.078 17.7973 54.1968 16.2707 54.206 14.3694V14.0952L53.8769 14.0586Z" fill="#E0E0E0"/>
<path d="M198.186 38.0177H226.048C226.048 43.5014 224.43 48.8634 221.397 53.4317C218.363 58.0001 214.049 61.5718 208.995 63.6992C203.941 65.8267 198.371 66.4153 192.984 65.3915C187.597 64.3676 182.631 61.7767 178.71 57.9433C174.788 54.11 172.085 49.2047 170.939 43.8421C169.793 38.4794 170.255 32.8978 172.268 27.7965C174.28 22.6952 177.752 18.3011 182.251 15.1648C186.749 12.0284 192.073 10.2892 197.555 10.165L198.186 38.0177Z" fill="#F0F0F0"/>
<path d="M205.692 31.226L205.07 3.36426C212.513 3.36117 219.68 6.18022 225.126 11.2529C230.339 16.4438 233.353 23.4422 233.545 30.7964L205.692 31.226Z" fill="#EBEBEB"/>
<path d="M209.53 152.71C209.374 157.829 209.667 173.442 209.667 173.442L214.237 168.871H239.969C240.402 168.869 240.816 168.695 241.12 168.389C241.425 168.082 241.596 167.667 241.596 167.235V152.792C241.596 152.361 241.425 151.947 241.12 151.642C240.815 151.337 240.401 151.165 239.969 151.165H211.166C210.747 151.162 210.343 151.321 210.038 151.609C209.733 151.897 209.551 152.291 209.53 152.71Z" fill="#EBEBEB"/>
<path d="M222.675 160.013C222.673 160.251 222.601 160.483 222.467 160.68C222.333 160.878 222.144 161.031 221.924 161.121C221.703 161.211 221.461 161.233 221.227 161.186C220.994 161.138 220.78 161.023 220.612 160.853C220.444 160.684 220.33 160.469 220.284 160.236C220.238 160.002 220.263 159.76 220.354 159.54C220.446 159.32 220.601 159.132 220.799 159C220.997 158.867 221.23 158.797 221.468 158.797C221.628 158.797 221.785 158.828 221.932 158.89C222.079 158.951 222.213 159.04 222.325 159.154C222.437 159.267 222.526 159.401 222.586 159.548C222.646 159.696 222.676 159.853 222.675 160.013Z" fill="#E0E0E0"/>
<path d="M226.752 160.013C226.752 160.254 226.68 160.489 226.546 160.689C226.412 160.889 226.222 161.045 225.999 161.137C225.776 161.228 225.532 161.252 225.296 161.204C225.059 161.157 224.843 161.04 224.673 160.869C224.504 160.698 224.388 160.481 224.343 160.244C224.297 160.008 224.322 159.763 224.415 159.541C224.509 159.319 224.666 159.13 224.867 158.997C225.068 158.865 225.304 158.795 225.545 158.797C225.704 158.797 225.862 158.828 226.009 158.89C226.156 158.951 226.29 159.041 226.402 159.154C226.514 159.267 226.603 159.401 226.663 159.548C226.723 159.696 226.753 159.853 226.752 160.013Z" fill="#E0E0E0"/>
<path d="M230.828 160.013C230.828 160.253 230.757 160.488 230.623 160.688C230.489 160.888 230.3 161.044 230.077 161.136C229.855 161.228 229.611 161.252 229.375 161.205C229.139 161.158 228.923 161.042 228.753 160.872C228.583 160.702 228.467 160.486 228.42 160.25C228.373 160.014 228.397 159.77 228.489 159.547C228.581 159.325 228.737 159.135 228.937 159.002C229.137 158.868 229.372 158.797 229.612 158.797C229.935 158.797 230.244 158.925 230.472 159.153C230.7 159.381 230.828 159.69 230.828 160.013Z" fill="#E0E0E0"/>
<path d="M0 233.955C0.685575 225.061 7.23053 211.294 15.2746 207.446C19.3278 205.541 23.8024 204.708 28.2696 205.028C32.7368 205.348 37.047 206.81 40.7871 209.274C45.8238 212.675 49.6448 217.858 55.1568 220.417C66.062 225.481 79.0056 218.306 86.6201 209C94.2345 199.694 99.0061 188.159 107.644 179.749C111.801 175.703 116.724 172.529 122.124 170.413C127.525 168.297 133.294 167.281 139.092 167.426C144.89 167.571 150.601 168.873 155.889 171.256C161.178 173.639 165.936 177.055 169.885 181.303C175.745 187.61 179.584 195.48 184.292 202.684C188.999 209.887 195.041 216.825 203.223 219.521C214.457 223.223 227.135 217.785 235.088 209.018C243.041 200.252 247.173 188.744 250.628 177.427C254.083 166.11 257.109 154.437 263.425 144.437C269.742 134.437 280.172 126.155 292 125.854V233.626L0 233.955Z" fill="#F0F0F0"/>
<path d="M288.654 369.287C288.654 369.415 224.163 369.525 144.627 369.525C65.0907 369.525 0.585938 369.415 0.585938 369.287C0.585938 369.16 65.0631 369.05 144.627 369.05C224.191 369.05 288.654 369.196 288.654 369.287Z" fill="#263238"/>
<path d="M239.011 139.401C239.196 139.377 239.379 139.34 239.559 139.291C239.815 139.202 240.047 139.057 240.24 138.868C240.433 138.678 240.581 138.448 240.675 138.194C240.786 137.805 240.82 137.398 240.775 136.996C240.775 136.549 240.775 136.082 240.775 135.525C240.775 134.455 240.775 133.23 240.775 131.868C240.775 126.32 240.729 118.312 240.693 108.44C240.693 103.486 240.693 98.0741 240.693 92.2604C240.693 89.3444 240.693 86.3371 240.693 83.2383C240.693 81.6934 240.693 80.1212 240.693 78.5306C240.693 77.7537 240.693 76.8944 240.693 76.1631C240.633 75.8069 240.454 75.4815 240.185 75.2406C239.916 74.9997 239.573 74.8576 239.212 74.8377H196.578C196.164 74.8375 195.767 74.9988 195.47 75.2873C195.173 75.5757 195 75.9686 194.988 76.3825C194.988 77.2966 194.988 78.2107 194.988 79.1797V95.5877C194.988 102.709 194.988 109.573 194.988 116.118C194.988 122.663 194.988 128.916 194.988 134.684V136.85C194.96 137.194 194.96 137.539 194.988 137.883C195.041 138.194 195.188 138.481 195.408 138.706C195.626 138.936 195.905 139.098 196.213 139.172C196.539 139.221 196.87 139.236 197.2 139.218H207.008L230.437 139.3L236.835 139.346H238.49H239.057C239.057 139.346 238.865 139.346 238.49 139.346H236.835L230.437 139.391L207.008 139.465H199.248H197.2C196.84 139.486 196.478 139.468 196.121 139.41C195.743 139.324 195.399 139.127 195.134 138.843C194.86 138.562 194.675 138.206 194.604 137.819C194.577 137.454 194.577 137.087 194.604 136.722V134.556C194.604 128.742 194.604 122.526 194.604 115.99C194.604 109.455 194.604 102.581 194.604 95.4598C194.604 91.907 194.604 88.2871 194.604 84.6003V79.0517C194.604 78.1376 194.604 77.2235 194.604 76.2363C194.621 75.6995 194.846 75.1904 195.231 74.8167C195.617 74.443 196.133 74.2341 196.67 74.2344H239.239C239.697 74.2632 240.131 74.4461 240.471 74.7531C240.812 75.0602 241.038 75.4734 241.113 75.9255C241.177 76.8396 241.113 77.5526 241.113 78.3661V83.0737C241.113 86.1725 241.113 89.1799 241.113 92.0959C241.113 97.9096 241.113 103.321 241.113 108.275C241.113 118.148 241.059 126.155 241.04 131.704C241.04 133.084 241.04 134.309 241.04 135.36C241.04 135.89 241.04 136.384 241.04 136.832C241.076 137.245 241.032 137.66 240.912 138.057C240.813 138.323 240.653 138.562 240.445 138.756C240.237 138.949 239.987 139.092 239.715 139.172C239.506 139.311 239.262 139.39 239.011 139.401Z" fill="#263238"/>
<path d="M220.802 87.3881C214.586 86.0078 207.758 89.3808 206.012 95.7886C204.33 101.941 208.398 109.125 214.568 110.798C217.611 111.527 220.816 111.116 223.577 109.642C226.338 108.169 228.463 105.734 229.55 102.8C231.762 96.2274 227.548 89.1431 221.186 87.0498C220.455 86.803 220.162 87.964 220.875 88.2016C226.296 90.1852 230.19 96.0355 228.563 101.913C227.027 107.489 220.491 111.219 214.915 109.738C209.55 108.312 206.085 102.553 206.771 97.1872C207.603 90.6148 214.559 86.6842 220.747 87.7537C220.976 87.7537 221.077 87.4521 220.848 87.4063L220.802 87.3881Z" fill="#263238"/>
<path d="M214.622 110.606C217.773 111.536 221.164 111.196 224.068 109.659C226.972 108.121 229.159 105.509 230.161 102.379C232.099 95.7062 227.776 88.4848 221.276 86.5012C219.777 86.0441 219.238 88.2563 220.637 88.8047C226.121 90.962 229.778 96.9311 227.62 102.79C225.682 108.001 219.978 110.515 214.686 109.92C214.265 109.866 214.21 110.524 214.594 110.633L214.622 110.606Z" fill="#6750A4"/>
<path d="M230.463 121.538C230.463 121.666 224.814 121.776 217.83 121.776C210.846 121.776 205.197 121.666 205.197 121.538C205.197 121.41 210.856 121.301 217.83 121.301C224.805 121.301 230.463 121.41 230.463 121.538Z" fill="#6750A4"/>
<path d="M230.463 125.369C230.463 125.506 224.814 125.606 217.83 125.606C210.846 125.606 205.197 125.506 205.197 125.369C205.197 125.231 210.856 125.131 217.83 125.131C224.805 125.131 230.463 125.241 230.463 125.369Z" fill="#6750A4"/>
<path d="M58.2461 34.818V119.336C58.2485 120.237 58.6075 121.1 59.2447 121.737C59.8819 122.375 60.7454 122.734 61.6465 122.736H174.227C175.128 122.734 175.992 122.375 176.629 121.737C177.266 121.1 177.625 120.237 177.628 119.336V31.8929C177.628 31.4385 177.537 30.9888 177.36 30.5701C177.184 30.1515 176.925 29.7725 176.599 29.4555C176.274 29.1385 175.888 28.89 175.465 28.7246C175.042 28.5592 174.59 28.4802 174.136 28.4924L61.5551 31.4176C60.67 31.4437 59.8297 31.8131 59.2121 32.4478C58.5945 33.0824 58.2481 33.9325 58.2461 34.818Z" fill="#E0E0E0"/>
<path d="M167.573 49.6078C167.573 49.6992 166.138 48.8857 163.414 48.0264C159.552 46.8221 155.467 46.5096 151.467 47.1123C148.734 47.5448 146.086 48.4088 143.624 49.6718C140.812 51.1833 138.21 53.0546 135.881 55.2387C133.34 57.4873 130.817 60.0285 127.911 62.3778C124.946 64.9059 121.478 66.7754 117.737 67.8624C115.798 68.363 113.78 68.484 111.795 68.2189C109.892 67.9317 108.042 67.3585 106.31 66.5187C103.139 64.8639 100.063 63.0328 97.0962 61.0341C94.4381 59.2706 91.5071 57.958 88.4214 57.1491C85.7311 56.4965 82.9529 56.2835 80.1945 56.5184C76.169 56.8535 72.2732 58.1041 68.8048 60.1748C66.3642 61.6739 65.2124 62.7891 65.1484 62.716C65.3941 62.4174 65.6698 62.1448 65.9711 61.9025C66.7989 61.1588 67.6854 60.4832 68.622 59.8823C71.5507 57.9914 74.8294 56.708 78.2634 56.1082C81.6975 55.5083 85.2171 55.6043 88.6134 56.3904C91.785 57.1822 94.8009 58.5017 97.535 60.2936C100.484 62.2529 103.535 64.0532 106.676 65.6868C110.028 67.3943 113.88 67.845 117.536 66.9574C121.155 65.8915 124.509 64.0758 127.38 61.6282C130.251 59.3338 132.783 56.8018 135.36 54.5531C137.755 52.3436 140.429 50.4567 143.313 48.9405C145.854 47.7088 148.576 46.891 151.375 46.5182C155.458 45.9473 159.618 46.3513 163.515 47.6973C164.568 48.056 165.592 48.4961 166.577 49.0136C166.929 49.1768 167.263 49.3759 167.573 49.6078Z" fill="#455A64"/>
<path d="M95.8547 69.4629H84.8398V99.2443H95.8547V69.4629Z" fill="#455A64"/>
<path d="M142.581 69.4629H131.566V99.2443H142.581V69.4629Z" fill="#455A64"/>
<path d="M158.15 51.9756H147.135V99.2437H158.15V51.9756Z" fill="#455A64"/>
<path d="M81.6028 89.8652H70.5879V99.8838H81.6028V89.8652Z" fill="#455A64"/>
<path d="M111.429 82.9092H100.414V99.2441H111.429V82.9092Z" fill="#455A64"/>
<path d="M127.005 79.1611H115.99V99.2439H127.005V79.1611Z" fill="#455A64"/>
<path d="M96.2922 102.754C96.2922 103.001 93.6322 103.193 90.3414 103.193C87.0507 103.193 84.3906 103.001 84.3906 102.754C84.3906 102.507 87.0598 102.315 90.3414 102.315C93.623 102.315 96.2922 102.507 96.2922 102.754Z" fill="#263238"/>
<path d="M82.5891 102.754C82.5891 103.001 79.9199 103.193 76.6383 103.193C73.3567 103.193 70.6875 103.001 70.6875 102.754C70.6875 102.507 73.3567 102.315 76.6383 102.315C79.9199 102.315 82.5891 102.507 82.5891 102.754Z" fill="#263238"/>
<path d="M160.325 102.754C160.325 103.001 157.308 103.193 153.597 103.193C149.886 103.193 146.869 103.001 146.869 102.754C146.869 102.507 149.877 102.315 153.597 102.315C157.317 102.315 160.325 102.507 160.325 102.754Z" fill="#263238"/>
<path d="M137.236 103.193C140.951 103.193 143.963 102.997 143.963 102.754C143.963 102.512 140.951 102.315 137.236 102.315C133.52 102.315 130.508 102.512 130.508 102.754C130.508 102.997 133.52 103.193 137.236 103.193Z" fill="#263238"/>
<path d="M126.996 102.754C126.996 103.001 124.336 103.193 121.045 103.193C117.754 103.193 115.104 103.001 115.104 102.754C115.104 102.507 117.764 102.315 121.045 102.315C124.327 102.315 126.996 102.507 126.996 102.754Z" fill="#263238"/>
<path d="M110.909 102.754C110.909 103.001 108.24 103.193 104.959 103.193C101.677 103.193 99.0078 103.001 99.0078 102.754C99.0078 102.507 101.668 102.315 104.959 102.315C108.249 102.315 110.909 102.507 110.909 102.754Z" fill="#263238"/>
<path d="M146.805 139.875H146.988C147.176 139.892 147.359 139.945 147.527 140.031C147.808 140.174 148.038 140.401 148.186 140.68C148.362 141.075 148.429 141.511 148.378 141.941C148.378 143.879 148.378 146.722 148.423 150.369C148.469 154.017 148.423 158.514 148.469 163.715C148.469 166.323 148.469 169.102 148.469 172.052V175.407C148.521 175.822 148.445 176.243 148.25 176.613C148.033 176.995 147.675 177.277 147.253 177.399C146.846 177.473 146.432 177.497 146.019 177.472H143.624L143.789 177.308C143.789 179.94 143.789 182.792 143.789 185.736V186.22L143.469 185.855L136.001 177.436L136.147 177.5H59.1614H53.7774C53.4757 177.5 53.2106 177.5 52.8633 177.5C52.529 177.458 52.2127 177.326 51.9492 177.116C51.6849 176.896 51.4858 176.609 51.3733 176.284C51.3229 176.118 51.2953 175.946 51.291 175.772V156.302C51.291 151.777 51.291 147.325 51.291 142.974V141.329C51.3017 141.023 51.3915 140.725 51.5517 140.463C51.7119 140.202 51.937 139.987 52.2051 139.839C52.4894 139.701 52.8034 139.635 53.1192 139.647H61.8397L106.055 139.702L135.854 139.775L143.962 139.821H135.854L106.055 139.894L61.8397 139.949H53.1284C52.8946 139.932 52.6607 139.979 52.4519 140.086C52.2465 140.191 52.0724 140.349 51.9473 140.543C51.8221 140.737 51.7503 140.961 51.7389 141.192V156.302C51.7389 160.83 51.7389 165.434 51.7389 170.114V175.407C51.7158 175.679 51.7374 175.954 51.8029 176.22C51.877 176.458 52.0203 176.668 52.2143 176.823C52.4103 176.983 52.6486 177.081 52.8998 177.107H59.1523H136.138H136.229L136.284 177.171L143.734 185.617L143.414 185.736C143.414 182.783 143.414 179.94 143.414 177.308V177.134H146.01C146.391 177.162 146.775 177.146 147.153 177.088C147.491 176.988 147.779 176.763 147.957 176.458C148.14 176.139 148.223 175.773 148.195 175.407C148.195 175.023 148.195 174.639 148.195 174.264V172.015C148.195 169.063 148.195 166.284 148.195 163.679C148.195 158.477 148.195 153.998 148.195 150.333C148.195 146.667 148.195 143.843 148.195 141.905C148.254 141.49 148.2 141.067 148.039 140.68C147.902 140.411 147.689 140.189 147.427 140.04C147.23 139.951 147.02 139.895 146.805 139.875Z" fill="#263238"/>
<path d="M56.4102 170.717C57.178 168.039 58.0738 165.306 59.8563 163.167C61.6388 161.028 64.5365 159.593 67.2331 160.287C71.5019 161.384 73.5587 167.07 77.9189 167.6C80.3321 167.929 82.6814 166.485 84.2354 164.611C85.7893 162.737 86.7491 160.461 87.9375 158.34C89.7657 155.15 92.1697 152.198 95.4514 150.598C98.733 148.998 102.956 148.989 105.826 151.247C110.744 155.123 110.059 163.679 115.296 167.097C116.57 167.898 118.053 168.303 119.557 168.259C121.061 168.215 122.518 167.725 123.743 166.851C126.074 165.123 127.262 162.143 129.712 160.598C132.546 158.77 136.476 159.51 139.045 161.668C141.613 163.825 142.948 167.152 143.432 170.461" fill="#6750A4"/>
<path d="M141.67 155.342C141.596 155.327 141.525 155.299 141.459 155.26L140.856 154.977C140.068 154.641 139.255 154.366 138.425 154.154C135.34 153.492 132.141 153.586 129.101 154.428C127.004 154.997 124.963 155.755 123.004 156.695C120.874 157.682 118.671 158.889 116.322 160.105C113.873 161.429 111.324 162.56 108.698 163.487C105.859 164.492 102.846 164.912 99.8404 164.721C96.8506 164.438 93.9219 163.698 91.1565 162.527C88.4599 161.449 85.9827 160.178 83.6243 158.99C78.9258 156.576 74.4833 154.648 70.571 154.063C67.468 153.497 64.272 153.729 61.2837 154.739C60.2008 155.146 59.16 155.657 58.1758 156.266C58.2302 156.209 58.2916 156.16 58.3586 156.119L58.9071 155.726C59.6329 155.261 60.4048 154.872 61.2106 154.565C64.2227 153.472 67.4676 153.182 70.6258 153.724C74.6387 154.282 79.0995 156.202 83.8163 158.597C86.1838 159.776 88.661 161.037 91.3302 162.098C94.053 163.245 96.9352 163.969 99.877 164.246C102.82 164.434 105.771 164.023 108.552 163.039C111.155 162.132 113.682 161.023 116.111 159.721C118.47 158.505 120.682 157.317 122.839 156.339C124.825 155.402 126.894 154.652 129.018 154.099C132.11 153.27 135.359 153.229 138.47 153.98C139.605 154.253 140.686 154.714 141.67 155.342Z" fill="#263238"/>
<path d="M100.881 149.51C100.891 149.701 100.842 149.891 100.742 150.055C100.643 150.219 100.496 150.349 100.322 150.428C100.147 150.508 99.9531 150.534 99.764 150.502C99.5749 150.47 99.3996 150.383 99.2608 150.251C99.1219 150.118 99.0259 149.948 98.985 149.76C98.9441 149.573 98.9602 149.378 99.0313 149.2C99.1024 149.021 99.2253 148.869 99.3839 148.761C99.5426 148.654 99.7299 148.596 99.9216 148.596C100.168 148.598 100.404 148.693 100.582 148.863C100.761 149.033 100.867 149.264 100.881 149.51Z" fill="#455A64"/>
<path d="M66.4391 153.578C66.4391 153.768 66.3828 153.954 66.2774 154.111C66.1719 154.269 66.022 154.392 65.8466 154.465C65.6713 154.538 65.4783 154.557 65.2921 154.52C65.1059 154.483 64.9349 154.391 64.8006 154.257C64.6664 154.123 64.575 153.952 64.538 153.765C64.5009 153.579 64.5199 153.386 64.5926 153.211C64.6652 153.036 64.7883 152.886 64.9461 152.78C65.1039 152.675 65.2895 152.618 65.4793 152.618C65.6071 152.612 65.7348 152.632 65.8543 152.678C65.9737 152.724 66.0821 152.794 66.1726 152.885C66.2631 152.975 66.3336 153.084 66.3795 153.203C66.4254 153.323 66.4457 153.45 66.4391 153.578Z" fill="#455A64"/>
<path d="M134.977 153.587C134.977 153.779 134.92 153.966 134.814 154.125C134.707 154.285 134.556 154.409 134.379 154.482C134.202 154.556 134.007 154.575 133.819 154.537C133.631 154.5 133.458 154.408 133.323 154.272C133.187 154.137 133.095 153.964 133.058 153.776C133.02 153.588 133.039 153.393 133.113 153.216C133.186 153.039 133.31 152.888 133.47 152.781C133.629 152.675 133.816 152.618 134.008 152.618C134.265 152.618 134.511 152.72 134.693 152.902C134.875 153.084 134.977 153.33 134.977 153.587Z" fill="#455A64"/>
<path d="M199.901 289.13H208.466C212.461 289.13 221.026 278.627 174.553 279.825C144.004 280.611 141.993 285.126 143.538 287.759C143.911 288.357 144.443 288.84 145.073 289.154C145.704 289.469 146.41 289.603 147.112 289.541C147.861 289.487 148.849 289.477 150.019 289.487L149.287 292.704L132.285 367.862L135.247 367.606L147.807 326.233L171.765 325.319L173.136 369.306H176.893L177.807 325.091H177.926L180.458 324.999L201.693 324.177L214.28 369.315H217.881L199.901 289.13ZM149.626 320.337L158.008 292.704L158.922 289.578C162.432 289.578 166.536 289.496 170.65 289.496L171.564 319.661L149.626 320.337ZM181.217 319.35H180.303L177.972 319.423L178.593 289.103H191.976L200.203 318.729L181.217 319.35Z" fill="#455A64"/>
<path d="M123.346 364.122V354.406L140.759 354.296L140.896 368.821L139.818 368.903C135.019 369.214 115.384 369.817 112.166 368.812C108.583 367.706 123.346 364.122 123.346 364.122Z" fill="#6750A4"/>
<path d="M111.756 367.925C111.756 368.09 118.264 368.227 126.299 368.227C134.334 368.227 140.843 368.09 140.843 367.925C140.843 367.761 134.334 367.633 126.299 367.633C118.264 367.633 111.756 367.761 111.756 367.925Z" fill="#263238"/>
<path d="M123.046 366.106C123.192 366.033 123.046 365.521 122.689 365.01C122.333 364.498 121.867 364.233 121.775 364.351C121.684 364.47 121.894 364.891 122.241 365.366C122.589 365.841 122.9 366.189 123.046 366.106Z" fill="#263238"/>
<path d="M121.93 366.746C122.085 366.691 122.003 366.115 121.665 365.512C121.326 364.909 120.869 364.534 120.75 364.598C120.632 364.662 120.842 365.201 121.162 365.759C121.482 366.316 121.774 366.81 121.93 366.746Z" fill="#263238"/>
<path d="M135.595 367.861C135.669 367.861 135.925 367.651 136.299 367.221C136.761 366.667 137.272 366.156 137.826 365.694C138.372 365.262 139.021 364.979 139.709 364.872C140.239 364.799 140.623 364.872 140.623 364.799C140.623 364.725 140.331 364.497 139.709 364.451C138.898 364.446 138.11 364.72 137.479 365.228C136.871 365.714 136.359 366.309 135.97 366.983C135.669 367.477 135.532 367.815 135.595 367.861Z" fill="#263238"/>
<path d="M122.99 364.278C122.908 364.415 123.201 364.753 123.703 364.936C124.206 365.119 124.617 365.055 124.672 364.936C124.727 364.817 124.343 364.58 123.904 364.415C123.466 364.251 123.073 364.141 122.99 364.278Z" fill="#263238"/>
<path d="M123.264 363.345C123.264 363.501 123.712 363.647 124.297 363.647C124.882 363.647 125.357 363.528 125.348 363.373C125.339 363.217 124.872 363.071 124.306 363.062C123.739 363.053 123.282 363.181 123.264 363.345Z" fill="#263238"/>
<path d="M160.085 364.122V354.406L177.499 354.296L177.636 368.821L176.558 368.903C171.759 369.214 152.124 369.817 148.906 368.812C145.332 367.706 160.085 364.122 160.085 364.122Z" fill="#6750A4"/>
<path d="M148.502 367.925C148.502 368.09 155.019 368.227 163.045 368.227C171.071 368.227 177.589 368.09 177.589 367.925C177.589 367.761 171.08 367.633 163.045 367.633C155.01 367.633 148.502 367.761 148.502 367.925Z" fill="#263238"/>
<path d="M159.791 366.106C159.938 366.033 159.791 365.521 159.435 365.01C159.078 364.498 158.612 364.233 158.521 364.351C158.429 364.47 158.649 364.891 158.987 365.366C159.325 365.841 159.645 366.189 159.791 366.106Z" fill="#263238"/>
<path d="M158.678 366.746C158.833 366.691 158.751 366.115 158.413 365.512C158.074 364.909 157.617 364.534 157.498 364.598C157.38 364.662 157.59 365.201 157.91 365.759C158.23 366.316 158.531 366.81 158.678 366.746Z" fill="#263238"/>
<path d="M172.344 367.861C172.417 367.861 172.673 367.651 173.047 367.221C173.509 366.667 174.02 366.156 174.574 365.694C175.12 365.262 175.769 364.979 176.457 364.872C176.987 364.799 177.371 364.872 177.371 364.799C177.371 364.725 177.069 364.497 176.457 364.451C175.646 364.446 174.858 364.72 174.227 365.228C173.619 365.714 173.107 366.309 172.718 366.983C172.417 367.477 172.28 367.815 172.344 367.861Z" fill="#263238"/>
<path d="M159.736 364.278C159.654 364.415 159.956 364.753 160.449 364.936C160.943 365.119 161.363 365.055 161.418 364.936C161.473 364.817 161.089 364.58 160.65 364.415C160.211 364.251 159.828 364.141 159.736 364.278Z" fill="#263238"/>
<path d="M160.012 363.345C160.012 363.501 160.46 363.647 161.045 363.647C161.63 363.647 162.105 363.528 162.096 363.373C162.087 363.217 161.621 363.071 161.054 363.062C160.487 363.053 160.03 363.181 160.012 363.345Z" fill="#263238"/>
<path d="M209.976 189.831C209.263 189.667 208.377 189.758 207.947 189.164C207.518 188.57 207.828 187.875 208.057 187.244C208.821 185.222 208.844 182.993 208.121 180.955C207.603 179.612 206.688 178.457 205.497 177.646C205.672 177.479 205.822 177.288 205.945 177.08C206.283 176.471 206.453 175.783 206.439 175.087C206.462 174.468 206.354 173.85 206.122 173.276C205.891 172.701 205.541 172.181 205.095 171.75C204.703 171.395 204.193 171.198 203.665 171.198C203.136 171.198 202.626 171.395 202.234 171.75C202.089 171.887 201.973 172.052 201.894 172.235C201.815 172.418 201.774 172.616 201.774 172.815C201.774 173.015 201.815 173.212 201.894 173.395C201.973 173.579 202.089 173.744 202.234 173.88C202.426 174.037 202.658 174.136 202.904 174.167C203.15 174.198 203.399 174.159 203.623 174.054C203.925 173.899 203.971 173.707 203.971 173.707C203.857 173.814 203.728 173.904 203.587 173.972C203.379 174.045 203.156 174.062 202.939 174.022C202.723 173.982 202.521 173.886 202.353 173.743C202.233 173.619 202.141 173.472 202.081 173.31C202.021 173.149 201.996 172.977 202.006 172.805C202.016 172.633 202.062 172.465 202.141 172.312C202.219 172.159 202.329 172.024 202.463 171.915C202.813 171.624 203.258 171.474 203.713 171.494C204.168 171.514 204.599 171.704 204.921 172.025C205.315 172.43 205.62 172.911 205.818 173.44C206.017 173.969 206.103 174.532 206.073 175.096C206.086 175.721 205.928 176.337 205.616 176.879C205.493 177.081 205.342 177.266 205.168 177.427C204.68 177.133 204.15 176.914 203.596 176.778C202.417 176.495 201.137 176.568 200.058 176.01C199.159 175.496 198.474 174.675 198.13 173.697C198.13 173.597 198.13 173.487 198.13 173.378C198.259 171.788 198.475 170.208 198.779 168.642C198.982 167.122 198.941 165.58 198.66 164.072C198.449 162.786 197.947 161.565 197.191 160.503C196.435 159.442 195.446 158.567 194.3 157.948C193.513 157.56 192.65 157.351 191.773 157.335C190.896 157.319 190.027 157.497 189.226 157.856C188.798 158.052 188.403 158.314 188.056 158.633L187.864 158.834C187.324 159.102 186.847 159.482 186.466 159.949L183.65 185.343L204.3 197.967C205.908 197.913 207.497 197.605 209.008 197.053C209.761 196.765 210.437 196.307 210.983 195.714C211.528 195.121 211.929 194.409 212.152 193.634C212.343 192.842 212.225 192.007 211.82 191.3C211.416 190.593 210.756 190.068 209.976 189.831ZM196.42 163.24C196.06 162.238 195.503 161.317 194.783 160.533C194.062 159.748 193.193 159.115 192.225 158.67C190.877 158.142 189.376 158.168 188.047 158.743C188.417 158.459 188.823 158.225 189.254 158.048C190.031 157.734 190.867 157.59 191.705 157.628C192.542 157.666 193.362 157.884 194.108 158.267C195.189 158.88 196.118 159.729 196.824 160.752C197.53 161.775 197.995 162.944 198.185 164.173C198.44 165.628 198.471 167.114 198.276 168.578C198.157 169.721 197.837 170.873 197.691 172.098C197.578 171.231 197.511 170.358 197.49 169.483C197.485 167.357 197.124 165.247 196.42 163.24Z" fill="#263238"/>
<path d="M190.305 163.204C190.181 162.717 189.898 162.286 189.501 161.979C188.72 161.625 187.833 161.586 187.024 161.869L186.978 156.037L175.625 146.805L169.509 149.977C167.943 150.791 166.632 152.023 165.722 153.536C164.812 155.05 164.339 156.785 164.354 158.551C164.4 163.249 164.518 169.621 164.829 173.24C165.359 179.456 171.648 179.968 171.648 179.968C171.648 179.968 171.923 182.208 172.105 184.429C172.105 184.429 170.725 202.83 177.197 202.665C181.969 202.546 185.177 192.519 186.53 187.244L187.252 184.347V184.191V184.073L187.115 166.622L187.307 166.823C187.513 166.998 187.766 167.109 188.034 167.141C188.302 167.174 188.573 167.127 188.815 167.006C189.158 166.854 189.467 166.633 189.723 166.359C189.98 166.084 190.177 165.76 190.305 165.407C190.548 164.692 190.548 163.918 190.305 163.204Z" fill="#FFBE9D"/>
<path d="M165.797 163.093C165.799 163.198 165.821 163.302 165.862 163.398C165.904 163.494 165.965 163.581 166.04 163.653C166.116 163.726 166.206 163.782 166.304 163.819C166.402 163.857 166.506 163.874 166.611 163.87C166.822 163.87 167.024 163.787 167.173 163.637C167.322 163.488 167.406 163.286 167.406 163.075C167.406 162.864 167.322 162.662 167.173 162.513C167.024 162.364 166.822 162.28 166.611 162.28C166.503 162.276 166.396 162.294 166.295 162.334C166.195 162.373 166.103 162.433 166.027 162.51C165.951 162.586 165.891 162.677 165.851 162.778C165.812 162.878 165.794 162.985 165.797 163.093Z" fill="#263238"/>
<path d="M165.001 162.253C165.101 162.353 165.677 161.832 166.536 161.768C167.396 161.704 168.045 162.097 168.136 161.978C168.227 161.86 168.063 161.741 167.779 161.558C167.396 161.314 166.943 161.205 166.491 161.247C166.04 161.286 165.614 161.469 165.275 161.768C165.028 161.997 164.946 162.207 165.001 162.253Z" fill="#263238"/>
<path d="M175.029 162.82C175.029 163.031 175.113 163.233 175.262 163.382C175.411 163.531 175.614 163.615 175.825 163.615C176.035 163.615 176.238 163.531 176.387 163.382C176.536 163.233 176.62 163.031 176.62 162.82C176.62 162.609 176.536 162.406 176.387 162.257C176.238 162.108 176.035 162.024 175.825 162.024C175.614 162.024 175.411 162.108 175.262 162.257C175.113 162.406 175.029 162.609 175.029 162.82Z" fill="#263238"/>
<path d="M174.516 161.97C174.617 162.07 175.193 161.558 176.052 161.485C176.911 161.412 177.56 161.814 177.652 161.705C177.743 161.595 177.578 161.458 177.295 161.275C176.909 161.041 176.459 160.936 176.009 160.973C175.559 161.011 175.132 161.19 174.79 161.485C174.544 161.695 174.461 161.924 174.516 161.97Z" fill="#263238"/>
<path d="M171.582 169.337C171.119 169.433 170.646 169.47 170.174 169.446C170.05 169.463 169.924 169.463 169.799 169.446C169.718 169.429 169.641 169.393 169.576 169.341C169.511 169.288 169.459 169.221 169.425 169.145C169.338 168.843 169.357 168.52 169.48 168.231L170.001 166.403C170.398 164.842 170.915 163.314 171.545 161.832C171.268 163.417 170.871 164.978 170.357 166.503L169.809 168.331C169.706 168.544 169.671 168.783 169.708 169.017C169.754 169.172 169.955 169.2 170.174 169.2C170.648 169.179 171.122 169.225 171.582 169.337Z" fill="#263238"/>
<path d="M174.555 170.031C174.61 169.967 172.078 171.558 170.332 171.603C170.655 172.032 171.114 172.338 171.634 172.472C172.153 172.607 172.703 172.562 173.193 172.344C173.67 172.201 174.075 171.883 174.328 171.455C174.58 171.026 174.661 170.517 174.555 170.031Z" fill="#FAFAFA"/>
<path d="M171.609 179.977C174.563 179.783 177.399 178.745 179.781 176.988C179.781 176.988 178.026 181.604 171.783 181.495L171.609 179.977Z" fill="#EB996E"/>
<path d="M163.448 159.3C166.19 159.675 168.155 158.934 170.806 158.267C173.457 157.6 175.98 155.854 176.903 153.276C177.221 154.98 178.006 156.562 179.17 157.846C179.417 158.121 179.892 158.377 180.084 158.075C180.125 157.986 180.147 157.889 180.147 157.792C180.147 157.694 180.125 157.597 180.084 157.508L179.536 155.333C180.475 157.048 181.695 158.593 183.147 159.903C184.664 161.119 189.28 163.002 188.576 161.192C188.403 160.735 189.948 146.64 176.547 146.429C163.146 146.219 163.448 159.3 163.448 159.3Z" fill="#263238"/>
<path d="M187.196 163.313C187.151 163.313 187.425 162.993 188.001 163.011C188.294 163.035 188.575 163.143 188.808 163.323C189.041 163.503 189.217 163.747 189.314 164.025C189.411 164.303 189.425 164.603 189.354 164.889C189.283 165.175 189.13 165.434 188.915 165.635C188.66 165.858 188.339 165.99 188.001 166.01C187.425 166.01 187.16 165.736 187.196 165.699C187.233 165.662 187.525 165.763 187.964 165.699C188.237 165.65 188.484 165.507 188.661 165.295C188.839 165.083 188.936 164.815 188.936 164.538C188.936 164.261 188.839 163.993 188.661 163.781C188.484 163.569 188.237 163.426 187.964 163.377C187.507 163.249 187.224 163.386 187.196 163.313Z" fill="#EB996E"/>
<path d="M209.446 207.098L211.75 206.632C211.75 206.632 206.731 184.072 189.29 184.072H187.234V184.182V184.337L186.512 187.235C185.159 192.509 181.941 202.537 177.179 202.656C171.136 202.811 171.941 186.824 172.069 184.666C171.917 184.684 171.77 184.724 171.63 184.785C171.63 184.785 152.662 185.836 144.207 202.473L158.833 213.159L162.407 211.002C162.407 211.002 163.577 234.531 161.566 240.938C159.299 248.178 155.789 256.195 155.789 256.195C171.868 254.942 190.159 255.665 209.657 257.465L196.649 209.704C201.02 209.472 205.333 208.594 209.446 207.098Z" fill="#6750A4"/>
<path d="M193.796 218.369C193.796 218.369 193.677 218.58 193.384 218.881C192.964 219.296 192.501 219.667 192.004 219.987C190.341 221.071 188.384 221.613 186.401 221.541C184.418 221.469 182.505 220.786 180.925 219.585C180.449 219.233 180.013 218.828 179.627 218.379C179.353 218.059 179.234 217.858 179.262 217.839C179.289 217.821 179.911 218.497 181.09 219.311C182.654 220.388 184.492 220.996 186.389 221.066C188.287 221.136 190.165 220.663 191.803 219.704C193.092 218.991 193.732 218.369 193.796 218.369Z" fill="#263238"/>
<path d="M202.244 230.939C202.076 230.575 201.944 230.195 201.851 229.805C201.595 228.982 201.284 227.977 200.937 226.697C200.151 224.074 199.108 220.445 197.81 216.468C196.512 212.492 195.342 208.89 194.465 206.294C194.063 205.07 193.715 204.037 193.441 203.214C193.29 202.847 193.182 202.463 193.121 202.071C193.319 202.418 193.484 202.782 193.615 203.159C193.907 203.863 194.309 204.896 194.785 206.185C195.745 208.753 196.997 212.327 198.258 216.322C199.52 220.317 200.562 223.955 201.257 226.606C201.604 227.931 201.878 229.01 202.043 229.759C202.155 230.143 202.222 230.539 202.244 230.939Z" fill="#263238"/>
<path d="M196.585 194.859C195.765 194.841 194.962 194.624 194.245 194.228C193.466 193.977 192.755 193.548 192.17 192.976C192.961 193.13 193.723 193.408 194.428 193.798C195.196 194.041 195.924 194.398 196.585 194.859Z" fill="#263238"/>
<path d="M201.082 202.683C201.136 201.764 201.349 200.86 201.713 200.014C201.931 199.116 202.302 198.263 202.81 197.491C202.745 198.41 202.528 199.312 202.17 200.16C201.953 201.057 201.585 201.91 201.082 202.683Z" fill="#263238"/>
<path d="M185.422 208.314C185.623 207.476 185.953 206.674 186.4 205.937C186.707 205.129 187.132 204.372 187.661 203.688C187.314 205.394 186.544 206.984 185.422 208.314Z" fill="#263238"/>
<path d="M182.589 213.269C181.774 212.844 181.062 212.244 180.504 211.514C179.831 210.885 179.306 210.114 178.969 209.256C180.286 210.501 181.508 211.842 182.625 213.269H182.589Z" fill="#263238"/>
<path d="M193.906 212.52C193.431 213.51 192.766 214.398 191.95 215.134C191.271 215.866 190.514 216.522 189.692 217.09L189.016 217.501L189.546 216.962C189.674 216.834 189.756 216.779 189.783 216.798C189.811 216.816 189.783 216.916 189.71 217.072L189.564 216.944C189.884 216.56 190.698 215.765 191.612 214.805C192.305 213.974 193.073 213.209 193.906 212.52Z" fill="#263238"/>
<path d="M196.364 228.835C195.458 228.683 194.599 228.326 193.851 227.793C193.019 227.395 192.29 226.81 191.721 226.084C192.557 226.424 193.352 226.86 194.088 227.382C194.905 227.769 195.669 228.258 196.364 228.835Z" fill="#263238"/>
<path d="M184.91 225.106C184.6 225.981 184.139 226.795 183.548 227.511C183.085 228.315 182.492 229.038 181.793 229.65C182.098 228.773 182.56 227.958 183.155 227.245C183.618 226.441 184.211 225.718 184.91 225.106Z" fill="#263238"/>
<path d="M177.398 225.847C176.685 225.584 176.035 225.177 175.488 224.65C174.51 223.891 173.787 223.187 173.87 223.086C173.952 222.986 174.784 223.516 175.78 224.275C176.777 225.033 177.453 225.737 177.398 225.847Z" fill="#263238"/>
<path d="M173.33 214.713C173.403 214.823 172.69 215.462 171.731 216.148C170.771 216.834 169.902 217.3 169.902 217.19C169.902 217.08 170.533 216.441 171.493 215.755C172.028 215.286 172.653 214.932 173.33 214.713Z" fill="#263238"/>
<path d="M171.775 209.072C171.675 209.155 171.016 208.46 170.303 207.528C169.59 206.595 169.106 205.763 169.207 205.699C169.307 205.635 169.974 206.321 170.678 207.253C171.382 208.186 171.885 208.999 171.775 209.072Z" fill="#263238"/>
<path d="M188.074 194.082C188.226 193.287 188.537 192.532 188.988 191.86C189.303 191.115 189.755 190.435 190.323 189.858C190.168 190.655 189.857 191.413 189.409 192.089C189.097 192.833 188.644 193.51 188.074 194.082Z" fill="#263238"/>
<path d="M167.707 195.033C166.865 194.785 166.073 194.392 165.367 193.872C164.582 193.479 163.873 192.949 163.273 192.309C164.12 192.545 164.913 192.939 165.614 193.469C166.4 193.859 167.109 194.389 167.707 195.033Z" fill="#263238"/>
<path d="M157.041 192.299C157.159 192.363 156.821 193.149 156.291 194.036C155.761 194.923 155.24 195.608 155.121 195.535C155.002 195.462 155.35 194.694 155.88 193.798C156.41 192.902 156.931 192.235 157.041 192.299Z" fill="#263238"/>
<path d="M168.137 254.02C166.584 253.383 165.168 252.452 163.969 251.277C164.774 251.531 165.525 251.934 166.181 252.466C166.919 252.865 167.581 253.391 168.137 254.02Z" fill="#263238"/>
<path d="M198.686 250.747C198.787 250.838 198.119 251.716 197.196 252.721C196.273 253.727 195.459 254.458 195.368 254.367C195.276 254.275 195.935 253.398 196.858 252.392C197.781 251.387 198.595 250.656 198.686 250.747Z" fill="#263238"/>
<path d="M177.928 254.175C177.891 252.956 177.891 251.737 177.928 250.519C178.047 250.519 178.376 251.296 178.376 252.347C178.447 252.99 178.288 253.637 177.928 254.175Z" fill="#263238"/>
<path d="M188.732 254.349C187.927 254.131 187.171 253.765 186.501 253.27C185.752 252.906 185.079 252.404 184.518 251.789C186.073 252.366 187.503 253.234 188.732 254.349Z" fill="#263238"/>
<path d="M209.675 257.475C209.492 257.495 209.308 257.495 209.126 257.475L207.554 257.347L201.795 256.835C196.932 256.414 190.213 255.811 182.773 255.692C175.332 255.573 168.577 255.738 163.704 255.921L157.927 256.167L156.355 256.231C156.173 256.257 155.989 256.257 155.807 256.231L156.346 256.149L157.918 256.003C159.271 255.884 161.246 255.747 163.686 255.601C168.567 255.326 175.314 255.089 182.782 255.235C190.25 255.381 196.969 256.012 201.832 256.515C204.254 256.78 206.219 257.008 207.572 257.182L209.135 257.392C209.318 257.397 209.499 257.425 209.675 257.475Z" fill="#263238"/>
<g opacity="0.2">
<path d="M193.102 202.071L197.672 232.465C197.672 232.465 201.904 232.465 202.681 231.204L193.102 202.071Z" fill="black"/>
<path d="M193.102 202.071L197.672 232.465C197.672 232.465 201.904 232.465 202.681 231.204L193.102 202.071Z" fill="black"/>
</g>
<path d="M166.566 255.628C155.807 256.46 149.929 255.719 138.091 256.835C134.091 257.362 130.412 259.304 127.72 262.308C125.027 265.313 123.499 269.182 123.411 273.215L121.336 362.623H143.082L146.519 282.466L152.918 283.28C152.095 313.299 155.231 362.623 155.231 362.623L179.381 361.444L178.001 284.459C178.001 284.459 210.479 286.662 209.665 257.502C209.675 257.474 184.098 254.376 166.566 255.628Z" fill="#263238"/>
<path d="M173.064 255.4C172.521 255.522 171.972 255.614 171.419 255.674C170.358 255.839 168.822 256.067 166.939 256.414C164.73 256.724 162.567 257.297 160.495 258.124C159.3 258.653 158.194 259.362 157.213 260.226C156.17 261.158 155.325 262.289 154.727 263.554C153.634 266.053 153.104 268.761 153.173 271.488C153.173 274.011 153.264 276.305 153.246 278.225C153.228 280.145 153.164 281.698 153.091 282.795C153.091 283.335 153.018 283.755 152.981 284.029C152.975 284.174 152.954 284.319 152.917 284.459C152.878 283.905 152.878 283.349 152.917 282.795C152.917 281.717 152.917 280.172 152.917 278.225C152.917 276.278 152.807 274.002 152.743 271.488C152.647 268.69 153.181 265.907 154.307 263.343C154.934 262.025 155.82 260.847 156.912 259.879C157.929 258.987 159.08 258.259 160.321 257.722C162.435 256.9 164.643 256.347 166.894 256.076C168.786 255.775 170.34 255.592 171.409 255.491C171.94 255.446 172.323 255.409 172.643 255.4C172.783 255.377 172.925 255.377 173.064 255.4Z" fill="#455A64"/>
<path d="M144.6 276.872C145.07 277.751 145.464 278.669 145.779 279.614C146.245 280.507 146.498 281.496 146.519 282.503C146.049 281.624 145.655 280.706 145.34 279.761C144.869 278.87 144.615 277.88 144.6 276.872Z" fill="#455A64"/>
<path d="M146.372 275.043C146.783 276.219 146.996 277.454 147.003 278.699C147.144 279.957 146.981 281.23 146.527 282.411C146.381 282.411 146.628 280.747 146.527 278.754C146.427 276.761 146.207 275.043 146.372 275.043Z" fill="#455A64"/>
<path d="M176.363 276.734C176.918 277.936 177.285 279.215 177.451 280.528C177.756 281.807 177.954 283.11 178.045 284.422C177.493 283.218 177.136 281.935 176.985 280.619C176.669 279.344 176.461 278.045 176.363 276.734Z" fill="#455A64"/>
<path d="M178.54 276.716C179.084 279.279 178.939 281.942 178.119 284.431C178.128 283.141 178.211 281.853 178.366 280.573C178.357 279.285 178.415 277.998 178.54 276.716Z" fill="#455A64"/>
<path d="M142.524 357.376C142.524 357.504 137.762 357.614 131.884 357.614C126.007 357.614 121.244 357.504 121.244 357.376C121.244 357.248 126.007 357.139 131.884 357.139C137.762 357.139 142.524 357.239 142.524 357.376Z" fill="#455A64"/>
<path d="M179.088 356.974C179.088 357.102 173.668 357.212 166.985 357.212C160.303 357.212 154.883 357.102 154.883 356.974C154.883 356.846 160.303 356.736 166.985 356.736C173.668 356.736 179.088 356.846 179.088 356.974Z" fill="#455A64"/>
<path d="M206.786 270.857H206.484H205.57H202.097L189.299 270.921H180.478C178.856 270.915 177.24 271.099 175.661 271.469C173.997 271.848 172.508 272.771 171.429 274.093C170.406 275.569 169.86 277.324 169.865 279.12C169.774 280.948 169.975 282.859 170.048 284.806C170.146 288.694 170.252 292.701 170.368 296.826C170.834 313.28 171.218 328.189 171.355 338.985C171.429 344.378 171.447 348.747 171.447 351.782C171.447 353.269 171.447 354.43 171.447 355.265C171.447 355.639 171.447 355.932 171.447 356.179C171.461 356.282 171.461 356.386 171.447 356.49C171.435 356.386 171.435 356.282 171.447 356.179C171.447 355.95 171.447 355.658 171.447 355.265C171.447 354.433 171.447 353.272 171.383 351.782C171.319 348.738 171.237 344.378 171.136 338.985C170.907 328.198 170.478 313.289 170.012 296.826C169.902 292.713 169.801 288.7 169.701 284.815C169.628 282.886 169.436 280.976 169.536 279.084C169.535 277.199 170.116 275.36 171.2 273.818C172.34 272.428 173.914 271.463 175.67 271.076C177.286 270.704 178.939 270.52 180.597 270.528H189.418L202.215 270.619L205.689 270.674H206.603C206.67 270.728 206.731 270.79 206.786 270.857Z" fill="#455A64"/>
<path opacity="0.2" d="M150.349 282.923C150.349 282.923 149.508 272.091 153.576 265.866L152.927 283.234L150.349 282.923Z" fill="black"/>
<path d="M152.104 272.621C152.026 272.633 151.946 272.633 151.867 272.621L151.154 272.493C150.523 272.374 149.609 272.191 148.411 272.054C146.97 271.877 145.508 271.964 144.097 272.31C143.224 272.54 142.4 272.928 141.665 273.453C140.861 274.051 140.217 274.839 139.791 275.747C138.877 277.667 138.768 280.071 138.713 282.594C138.658 285.117 138.585 287.841 138.512 290.693C138.356 296.397 138.192 302.667 138.018 309.249C137.634 322.394 137.278 334.295 137.022 342.961C136.875 347.239 136.748 350.722 136.665 353.171C136.61 354.351 136.574 355.283 136.546 355.914C136.546 356.206 136.546 356.444 136.501 356.636C136.513 356.718 136.513 356.801 136.501 356.883C136.487 356.801 136.487 356.717 136.501 356.636C136.501 356.444 136.501 356.206 136.501 355.914C136.501 355.237 136.501 354.305 136.501 353.171C136.546 350.712 136.62 347.239 136.702 342.952C136.921 334.286 137.232 322.384 137.561 309.231C137.753 302.649 137.927 296.387 138.091 290.683C138.174 287.831 138.256 285.117 138.338 282.585C138.42 280.052 138.512 277.603 139.508 275.601C139.967 274.649 140.655 273.827 141.51 273.206C142.275 272.668 143.134 272.278 144.042 272.054C145.489 271.714 146.987 271.652 148.457 271.871C149.655 272.036 150.569 272.255 151.199 272.392L151.903 272.575C152.031 272.584 152.114 272.612 152.104 272.621Z" fill="#455A64"/>
<path d="M150.422 203.671C150.422 203.671 127.469 226.697 123.091 231.843C119.352 236.24 121.793 244.531 124.919 244.888C128.045 245.244 178.65 244.559 178.65 244.559L177.982 234.211C177.982 234.211 145.203 234.357 144.243 233.754C143.283 233.151 163.201 213.013 163.201 213.013L150.422 203.671Z" fill="#FFBE9D"/>
<path d="M211.118 206.678C211.118 206.678 218.092 227.821 218.933 230.316C219.774 232.812 224.107 243.388 215.88 244.275C207.653 245.161 163.502 244.275 163.502 244.275L160.221 233.589C160.221 233.589 202.891 233.479 202.681 231.203C202.47 228.927 196.2 209.831 196.2 209.831L211.118 206.678Z" fill="#FFBE9D"/>
<path d="M117.945 200.088L133.805 244.019L206.814 243.992L206.311 241.844L178.916 240.838L165.433 199.411L117.945 200.088Z" fill="#263238"/>
<path d="M150.486 220.088C150.496 220.583 150.364 221.07 150.105 221.491C149.847 221.913 149.473 222.252 149.028 222.468C148.583 222.684 148.085 222.767 147.594 222.709C147.103 222.651 146.638 222.453 146.256 222.138C145.874 221.824 145.59 221.407 145.438 220.936C145.286 220.466 145.272 219.961 145.397 219.483C145.523 219.004 145.783 218.572 146.147 218.237C146.511 217.902 146.964 217.678 147.451 217.593C148.183 217.526 148.912 217.751 149.48 218.218C150.048 218.685 150.409 219.357 150.486 220.088Z" fill="#FAFAFA"/>
<path d="M244.574 243.06H72.1019H70.228H68.3633V369.196H72.1019V250.491H244.574V369.288H288.661V250.491V243.06H244.574Z" fill="#455A64"/>
</svg>
