<svg width="288" height="36" viewBox="0 0 288 36" fill="none" xmlns="http://www.w3.org/2000/svg">
<path fill-rule="evenodd" clip-rule="evenodd" d="M20.4446 11.3482C19.129 10.4692 17.5822 10 16 10V2C19.1645 2 22.2579 2.93838 24.8891 4.69649C27.5203 6.45458 29.571 8.95345 30.7821 11.877C31.993 14.8006 32.3099 18.0178 31.6926 21.1214C31.0752 24.2251 29.5514 27.0761 27.3137 29.3137C25.0761 31.5514 22.2251 33.0752 19.1214 33.6926C16.0178 34.3099 12.8006 33.993 9.87704 32.7821C6.95344 31.571 4.45458 29.5203 2.69649 26.8891C0.938384 24.2579 0 21.1645 0 18H8C8 19.5822 8.4692 21.129 9.34824 22.4446C10.2273 23.7602 11.4767 24.7855 12.9386 25.391C14.4003 25.9966 16.0089 26.155 17.5607 25.8462C19.1126 25.5376 20.538 24.7757 21.6569 23.6569C22.7757 22.538 23.5376 21.1126 23.8462 19.5607C24.155 18.0089 23.9966 16.4003 23.391 14.9386C22.7855 13.4767 21.7602 12.2273 20.4446 11.3482Z" fill="#6750A4"/>
<path fill-rule="evenodd" clip-rule="evenodd" d="M8 2C8 3.05058 7.79308 4.09087 7.39104 5.06148C6.989 6.03208 6.39972 6.91399 5.65685 7.65686C4.91399 8.39973 4.03208 8.989 3.06147 9.39104C2.09086 9.79308 1.05057 10 3.49688e-07 10L0 18C2.10115 18 4.18172 17.5862 6.12294 16.7821C8.06416 15.978 9.828 14.7994 11.3137 13.3137C12.7994 11.828 13.978 10.0642 14.7821 8.12294C15.5862 6.18172 16 4.10115 16 2L8 2Z" fill="#6750A4"/>
<path d="M39.876 28V8.4H44.076V28H39.876ZM47.277 28V13.888H50.945L51.281 16.156C51.7104 15.372 52.317 14.7467 53.101 14.28C53.885 13.7947 54.837 13.552 55.957 13.552C57.133 13.552 58.1224 13.804 58.925 14.308C59.7277 14.812 60.3344 15.54 60.745 16.492C61.1744 17.4253 61.389 18.5733 61.389 19.936V28H57.217V20.328C57.217 19.3013 56.993 18.508 56.545 17.948C56.1157 17.3693 55.425 17.08 54.473 17.08C53.913 17.08 53.3997 17.22 52.933 17.5C52.485 17.7613 52.1304 18.144 51.869 18.648C51.6077 19.152 51.477 19.7587 51.477 20.468V28H47.277ZM68.0277 28L62.9037 13.888H67.3277L70.6037 24.052L73.8797 13.888H78.2477L73.1517 28H68.0277ZM86.2796 28.336C84.8236 28.336 83.545 28.0373 82.4436 27.44C81.3423 26.824 80.4743 25.9747 79.8396 24.892C79.2236 23.7907 78.9156 22.5307 78.9156 21.112C78.9156 19.656 79.2236 18.3587 79.8396 17.22C80.4556 16.0813 81.3143 15.1853 82.4156 14.532C83.517 13.8787 84.7956 13.552 86.2516 13.552C87.6703 13.552 88.9116 13.86 89.9756 14.476C91.0396 15.092 91.8703 15.932 92.4676 16.996C93.0836 18.0413 93.3916 19.2547 93.3916 20.636C93.3916 20.8227 93.3823 21.0373 93.3636 21.28C93.3636 21.504 93.345 21.7373 93.3076 21.98H81.9116V19.544H89.1076C89.0703 18.76 88.781 18.1347 88.2396 17.668C87.717 17.1827 87.0636 16.94 86.2796 16.94C85.6823 16.94 85.141 17.08 84.6556 17.36C84.1703 17.64 83.7783 18.06 83.4796 18.62C83.1996 19.18 83.0596 19.8893 83.0596 20.748V21.588C83.0596 22.2413 83.181 22.82 83.4236 23.324C83.685 23.828 84.049 24.22 84.5156 24.5C85.001 24.78 85.5703 24.92 86.2236 24.92C86.8396 24.92 87.3436 24.7987 87.7356 24.556C88.1463 24.2947 88.4636 23.968 88.6876 23.576H92.9716C92.7103 24.472 92.2623 25.284 91.6276 26.012C90.993 26.7213 90.2183 27.2907 89.3036 27.72C88.389 28.1307 87.381 28.336 86.2796 28.336ZM95.9802 28V13.888H99.6482L99.9842 16.156C100.413 15.372 101.02 14.7467 101.804 14.28C102.588 13.7947 103.54 13.552 104.66 13.552C105.836 13.552 106.825 13.804 107.628 14.308C108.431 14.812 109.037 15.54 109.448 16.492C109.877 17.4253 110.092 18.5733 110.092 19.936V28H105.92V20.328C105.92 19.3013 105.696 18.508 105.248 17.948C104.819 17.3693 104.128 17.08 103.176 17.08C102.616 17.08 102.103 17.22 101.636 17.5C101.188 17.7613 100.833 18.144 100.572 18.648C100.311 19.152 100.18 19.7587 100.18 20.468V28H95.9802ZM119.698 28C118.671 28 117.766 27.8413 116.982 27.524C116.198 27.188 115.591 26.6467 115.162 25.9C114.732 25.1533 114.518 24.136 114.518 22.848V17.388H112.11V13.888H114.518L114.966 9.912H118.718V13.888H122.33V17.388H118.718V22.904C118.718 23.464 118.839 23.8653 119.082 24.108C119.343 24.332 119.782 24.444 120.398 24.444H122.33V28H119.698ZM131.506 28.336C130.143 28.336 128.921 28.0187 127.838 27.384C126.755 26.7493 125.897 25.8813 125.262 24.78C124.627 23.66 124.31 22.3907 124.31 20.972C124.31 19.516 124.627 18.2373 125.262 17.136C125.897 16.016 126.755 15.1387 127.838 14.504C128.939 13.8693 130.162 13.552 131.506 13.552C132.887 13.552 134.119 13.8693 135.202 14.504C136.285 15.1387 137.143 16.016 137.778 17.136C138.413 18.2373 138.73 19.5067 138.73 20.944C138.73 22.3813 138.413 23.66 137.778 24.78C137.143 25.8813 136.285 26.7493 135.202 27.384C134.119 28.0187 132.887 28.336 131.506 28.336ZM131.506 24.696C132.066 24.696 132.561 24.556 132.99 24.276C133.438 23.996 133.793 23.576 134.054 23.016C134.315 22.456 134.446 21.7653 134.446 20.944C134.446 20.1227 134.315 19.432 134.054 18.872C133.793 18.312 133.447 17.892 133.018 17.612C132.589 17.332 132.094 17.192 131.534 17.192C130.974 17.192 130.47 17.332 130.022 17.612C129.593 17.892 129.247 18.312 128.986 18.872C128.725 19.432 128.594 20.1227 128.594 20.944C128.594 21.7653 128.725 22.456 128.986 23.016C129.247 23.576 129.593 23.996 130.022 24.276C130.47 24.556 130.965 24.696 131.506 24.696ZM141.457 28V13.888H145.181L145.573 16.464C145.946 15.8667 146.385 15.3533 146.889 14.924C147.393 14.4947 147.971 14.1587 148.625 13.916C149.297 13.6733 150.015 13.552 150.781 13.552V18.004H149.381C148.821 18.004 148.307 18.0693 147.841 18.2C147.393 18.312 147.001 18.508 146.665 18.788C146.347 19.068 146.095 19.4507 145.909 19.936C145.741 20.4027 145.657 20.9907 145.657 21.7V28H141.457ZM154.591 34.16L157.979 26.432H157.139L151.455 13.888H156.019L159.911 22.484L163.159 13.888H167.667L159.043 34.16H154.591ZM181.463 28V8.4H184.207L191.123 22.092L198.067 8.4H200.839V28H198.487V12.6L192.019 25.256H190.255L183.815 12.656V28H181.463ZM208.958 28.336C207.82 28.336 206.868 28.14 206.102 27.748C205.337 27.3373 204.768 26.8053 204.394 26.152C204.021 25.48 203.834 24.752 203.834 23.968C203.834 23.016 204.077 22.2133 204.562 21.56C205.066 20.888 205.766 20.384 206.662 20.048C207.577 19.6933 208.65 19.516 209.882 19.516H213.606C213.606 18.6387 213.466 17.9107 213.186 17.332C212.925 16.7347 212.533 16.2867 212.01 15.988C211.506 15.6893 210.872 15.54 210.106 15.54C209.21 15.54 208.436 15.764 207.782 16.212C207.129 16.66 206.728 17.3227 206.578 18.2H204.17C204.282 17.192 204.618 16.352 205.178 15.68C205.757 14.9893 206.485 14.4667 207.362 14.112C208.24 13.7387 209.154 13.552 210.106 13.552C211.413 13.552 212.496 13.7947 213.354 14.28C214.232 14.7467 214.885 15.4093 215.314 16.268C215.744 17.108 215.958 18.1067 215.958 19.264V28H213.858L213.718 25.508C213.532 25.9 213.289 26.2733 212.99 26.628C212.71 26.964 212.374 27.2627 211.982 27.524C211.59 27.7667 211.142 27.9627 210.638 28.112C210.153 28.2613 209.593 28.336 208.958 28.336ZM209.322 26.348C209.976 26.348 210.564 26.2173 211.086 25.956C211.628 25.676 212.085 25.3027 212.458 24.836C212.832 24.3507 213.112 23.8187 213.298 23.24C213.504 22.6613 213.606 22.0547 213.606 21.42V21.336H210.078C209.164 21.336 208.426 21.448 207.866 21.672C207.306 21.8773 206.905 22.176 206.662 22.568C206.42 22.9413 206.298 23.3707 206.298 23.856C206.298 24.36 206.41 24.7987 206.634 25.172C206.877 25.5453 207.222 25.8347 207.67 26.04C208.137 26.2453 208.688 26.348 209.322 26.348ZM219.097 28V13.888H221.225L221.337 16.352C221.785 15.4747 222.419 14.7933 223.241 14.308C224.081 13.804 225.033 13.552 226.097 13.552C227.198 13.552 228.15 13.776 228.953 14.224C229.755 14.6533 230.381 15.316 230.829 16.212C231.277 17.0893 231.501 18.2093 231.501 19.572V28H229.149V19.824C229.149 18.4053 228.831 17.3413 228.197 16.632C227.581 15.9227 226.703 15.568 225.565 15.568C224.781 15.568 224.081 15.764 223.465 16.156C222.849 16.5293 222.354 17.08 221.981 17.808C221.626 18.5173 221.449 19.404 221.449 20.468V28H219.097ZM239.267 28.336C238.128 28.336 237.176 28.14 236.411 27.748C235.646 27.3373 235.076 26.8053 234.703 26.152C234.33 25.48 234.143 24.752 234.143 23.968C234.143 23.016 234.386 22.2133 234.871 21.56C235.375 20.888 236.075 20.384 236.971 20.048C237.886 19.6933 238.959 19.516 240.191 19.516H243.915C243.915 18.6387 243.775 17.9107 243.495 17.332C243.234 16.7347 242.842 16.2867 242.319 15.988C241.815 15.6893 241.18 15.54 240.415 15.54C239.519 15.54 238.744 15.764 238.091 16.212C237.438 16.66 237.036 17.3227 236.887 18.2H234.479C234.591 17.192 234.927 16.352 235.487 15.68C236.066 14.9893 236.794 14.4667 237.671 14.112C238.548 13.7387 239.463 13.552 240.415 13.552C241.722 13.552 242.804 13.7947 243.663 14.28C244.54 14.7467 245.194 15.4093 245.623 16.268C246.052 17.108 246.267 18.1067 246.267 19.264V28H244.167L244.027 25.508C243.84 25.9 243.598 26.2733 243.299 26.628C243.019 26.964 242.683 27.2627 242.291 27.524C241.899 27.7667 241.451 27.9627 240.947 28.112C240.462 28.2613 239.902 28.336 239.267 28.336ZM239.631 26.348C240.284 26.348 240.872 26.2173 241.395 25.956C241.936 25.676 242.394 25.3027 242.767 24.836C243.14 24.3507 243.42 23.8187 243.607 23.24C243.812 22.6613 243.915 22.0547 243.915 21.42V21.336H240.387C239.472 21.336 238.735 21.448 238.175 21.672C237.615 21.8773 237.214 22.176 236.971 22.568C236.728 22.9413 236.607 23.3707 236.607 23.856C236.607 24.36 236.719 24.7987 236.943 25.172C237.186 25.5453 237.531 25.8347 237.979 26.04C238.446 26.2453 238.996 26.348 239.631 26.348ZM254.977 34.496C253.708 34.496 252.579 34.328 251.589 33.992C250.619 33.6747 249.863 33.18 249.321 32.508C248.78 31.836 248.509 31.0053 248.509 30.016C248.509 29.5867 248.593 29.1293 248.761 28.644C248.948 28.1587 249.256 27.6827 249.685 27.216C250.133 26.7493 250.759 26.3293 251.561 25.956L253.185 26.908C252.196 27.3187 251.552 27.7853 251.253 28.308C250.955 28.8493 250.805 29.344 250.805 29.792C250.805 30.408 250.983 30.9213 251.337 31.332C251.692 31.7427 252.187 32.0507 252.821 32.256C253.456 32.4613 254.175 32.564 254.977 32.564C255.78 32.564 256.471 32.452 257.049 32.228C257.628 32.004 258.076 31.6867 258.393 31.276C258.711 30.8653 258.869 30.38 258.869 29.82C258.869 29.1667 258.627 28.616 258.141 28.168C257.656 27.7387 256.732 27.4867 255.369 27.412C254.268 27.3373 253.344 27.2347 252.597 27.104C251.851 26.9733 251.235 26.824 250.749 26.656C250.264 26.4693 249.853 26.264 249.517 26.04C249.2 25.816 248.911 25.5827 248.649 25.34V24.696L251.365 22.008L253.409 22.736L250.609 25.256L250.973 24.276C251.179 24.4253 251.375 24.5653 251.561 24.696C251.748 24.8267 252 24.9387 252.317 25.032C252.635 25.1253 253.073 25.2093 253.633 25.284C254.212 25.3587 254.968 25.4333 255.901 25.508C257.189 25.6013 258.216 25.8253 258.981 26.18C259.765 26.5347 260.325 27.0107 260.661 27.608C261.016 28.2053 261.193 28.9147 261.193 29.736C261.193 30.5387 260.969 31.2947 260.521 32.004C260.092 32.732 259.42 33.3293 258.505 33.796C257.591 34.2627 256.415 34.496 254.977 34.496ZM254.949 23.576C253.773 23.576 252.765 23.352 251.925 22.904C251.104 22.456 250.479 21.8587 250.049 21.112C249.62 20.3467 249.405 19.4973 249.405 18.564C249.405 17.6307 249.62 16.7907 250.049 16.044C250.497 15.2973 251.132 14.7 251.953 14.252C252.775 13.7853 253.773 13.552 254.949 13.552C256.125 13.552 257.124 13.7853 257.945 14.252C258.767 14.7 259.392 15.2973 259.821 16.044C260.251 16.7907 260.465 17.6307 260.465 18.564C260.465 19.4973 260.251 20.3467 259.821 21.112C259.392 21.8587 258.767 22.456 257.945 22.904C257.124 23.352 256.125 23.576 254.949 23.576ZM254.949 21.644C255.957 21.644 256.751 21.3827 257.329 20.86C257.908 20.3373 258.197 19.572 258.197 18.564C258.197 17.5747 257.908 16.8187 257.329 16.296C256.751 15.7733 255.957 15.512 254.949 15.512C253.96 15.512 253.157 15.7733 252.541 16.296C251.944 16.8187 251.645 17.5747 251.645 18.564C251.645 19.572 251.944 20.3373 252.541 20.86C253.139 21.3827 253.941 21.644 254.949 21.644ZM257.245 15.876L256.545 13.888H262.313V15.652L257.245 15.876ZM270.16 28.336C268.834 28.336 267.658 28.028 266.632 27.412C265.624 26.796 264.83 25.9373 264.252 24.836C263.673 23.716 263.384 22.4187 263.384 20.944C263.384 19.4507 263.664 18.1533 264.224 17.052C264.802 15.9507 265.605 15.092 266.632 14.476C267.677 13.86 268.872 13.552 270.216 13.552C271.597 13.552 272.764 13.86 273.716 14.476C274.686 15.092 275.424 15.904 275.928 16.912C276.45 17.9013 276.712 18.9933 276.712 20.188C276.712 20.3747 276.712 20.5707 276.712 20.776C276.712 20.9813 276.702 21.2147 276.684 21.476H265.148V19.656H274.416C274.36 18.368 273.93 17.36 273.128 16.632C272.344 15.904 271.354 15.54 270.16 15.54C269.357 15.54 268.61 15.7267 267.92 16.1C267.248 16.4547 266.706 16.9867 266.296 17.696C265.885 18.3867 265.68 19.2547 265.68 20.3V21.084C265.68 22.2413 265.885 23.212 266.296 23.996C266.725 24.78 267.276 25.368 267.948 25.76C268.638 26.152 269.376 26.348 270.16 26.348C271.149 26.348 271.961 26.1333 272.596 25.704C273.249 25.256 273.716 24.6587 273.996 23.912H276.32C276.096 24.752 275.704 25.508 275.144 26.18C274.584 26.852 273.884 27.384 273.044 27.776C272.222 28.1493 271.261 28.336 270.16 28.336ZM279.386 28V13.888H281.514L281.682 16.576C281.999 15.9413 282.4 15.4 282.886 14.952C283.39 14.504 283.987 14.1587 284.678 13.916C285.387 13.6733 286.19 13.552 287.086 13.552V16.016H286.218C285.62 16.016 285.051 16.1 284.51 16.268C283.968 16.4173 283.483 16.6693 283.054 17.024C282.643 17.3787 282.316 17.864 282.074 18.48C281.85 19.0773 281.738 19.824 281.738 20.72V28H279.386Z" fill="#6750A4"/>
</svg>
