<svg width="573" height="36" viewBox="0 0 573 36" fill="none" xmlns="http://www.w3.org/2000/svg">
<path fill-rule="evenodd" clip-rule="evenodd" d="M20.4446 11.3482C19.129 10.4692 17.5822 10 16 10V2C19.1645 2 22.2579 2.93838 24.8891 4.69649C27.5203 6.45458 29.571 8.95345 30.7821 11.877C31.993 14.8006 32.3099 18.0178 31.6926 21.1214C31.0752 24.2251 29.5514 27.0761 27.3137 29.3137C25.0761 31.5514 22.2251 33.0752 19.1214 33.6926C16.0178 34.3099 12.8006 33.993 9.87704 32.7821C6.95344 31.571 4.45458 29.5203 2.69649 26.8891C0.938384 24.2579 0 21.1645 0 18H8C8 19.5822 8.4692 21.129 9.34824 22.4446C10.2273 23.7602 11.4767 24.7855 12.9386 25.391C14.4003 25.9966 16.0089 26.155 17.5607 25.8462C19.1126 25.5376 20.538 24.7757 21.6569 23.6569C22.7757 22.538 23.5376 21.1126 23.8462 19.5607C24.155 18.0089 23.9966 16.4003 23.391 14.9386C22.7855 13.4767 21.7602 12.2273 20.4446 11.3482Z" fill="#6750A4"/>
<path fill-rule="evenodd" clip-rule="evenodd" d="M8 2C8 3.05058 7.79308 4.09087 7.39104 5.06148C6.989 6.03208 6.39972 6.91399 5.65685 7.65686C4.91399 8.39973 4.03208 8.989 3.06147 9.39104C2.09086 9.79308 1.05057 10 3.49688e-07 10L0 18C2.10115 18 4.18172 17.5862 6.12294 16.7821C8.06416 15.978 9.828 14.7994 11.3137 13.3137C12.7994 11.828 13.978 10.0642 14.7821 8.12294C15.5862 6.18172 16 4.10115 16 2L8 2Z" fill="#6750A4"/>
<path d="M39.876 28V8.4H44.916L50.628 20.188L56.284 8.4H61.296V28H57.096V15.484L52.28 25.256H48.92L44.076 15.484V28H39.876ZM71.4476 28.336C69.9916 28.336 68.7129 28.0373 67.6116 27.44C66.5103 26.824 65.6423 25.9747 65.0076 24.892C64.3916 23.7907 64.0836 22.5307 64.0836 21.112C64.0836 19.656 64.3916 18.3587 65.0076 17.22C65.6236 16.0813 66.4823 15.1853 67.5836 14.532C68.6849 13.8787 69.9636 13.552 71.4196 13.552C72.8383 13.552 74.0796 13.86 75.1436 14.476C76.2076 15.092 77.0383 15.932 77.6356 16.996C78.2516 18.0413 78.5596 19.2547 78.5596 20.636C78.5596 20.8227 78.5503 21.0373 78.5316 21.28C78.5316 21.504 78.5129 21.7373 78.4756 21.98H67.0796V19.544H74.2756C74.2383 18.76 73.9489 18.1347 73.4076 17.668C72.8849 17.1827 72.2316 16.94 71.4476 16.94C70.8503 16.94 70.3089 17.08 69.8236 17.36C69.3383 17.64 68.9463 18.06 68.6476 18.62C68.3676 19.18 68.2276 19.8893 68.2276 20.748V21.588C68.2276 22.2413 68.3489 22.82 68.5916 23.324C68.8529 23.828 69.2169 24.22 69.6836 24.5C70.1689 24.78 70.7383 24.92 71.3916 24.92C72.0076 24.92 72.5116 24.7987 72.9036 24.556C73.3143 24.2947 73.6316 23.968 73.8556 23.576H78.1396C77.8783 24.472 77.4303 25.284 76.7956 26.012C76.1609 26.7213 75.3863 27.2907 74.4716 27.72C73.5569 28.1307 72.5489 28.336 71.4476 28.336ZM87.4201 28.336C86.1695 28.336 85.0308 28.0187 84.0041 27.384C82.9961 26.7493 82.1935 25.8813 81.5961 24.78C81.0175 23.66 80.7281 22.3907 80.7281 20.972C80.7281 19.5347 81.0268 18.2653 81.6241 17.164C82.2215 16.044 83.0335 15.1667 84.0601 14.532C85.1055 13.8787 86.2628 13.552 87.5321 13.552C88.5028 13.552 89.3521 13.7293 90.0801 14.084C90.8081 14.42 91.4055 14.9147 91.8721 15.568V7.84H96.0721V28H92.3481L91.8721 26.18C91.5921 26.572 91.2468 26.936 90.8361 27.272C90.4441 27.5893 89.9681 27.8413 89.4081 28.028C88.8481 28.2333 88.1855 28.336 87.4201 28.336ZM88.5121 24.668C89.2028 24.668 89.8095 24.5093 90.3321 24.192C90.8735 23.8747 91.2841 23.436 91.5641 22.876C91.8628 22.316 92.0121 21.672 92.0121 20.944C92.0121 20.216 91.8628 19.572 91.5641 19.012C91.2841 18.452 90.8735 18.0133 90.3321 17.696C89.8095 17.3787 89.2028 17.22 88.5121 17.22C87.8401 17.22 87.2335 17.3787 86.6921 17.696C86.1695 18.0133 85.7588 18.452 85.4601 19.012C85.1615 19.572 85.0121 20.2067 85.0121 20.916C85.0121 21.644 85.1615 22.2973 85.4601 22.876C85.7588 23.436 86.1695 23.8747 86.6921 24.192C87.2335 24.5093 87.8401 24.668 88.5121 24.668ZM99.2705 28V8.4H103.471V28H99.2705ZM120.308 31.192L113.028 19.712H117.844L125.348 31.192H120.308ZM115.856 28.336C113.933 28.336 112.244 27.9067 110.788 27.048C109.332 26.1893 108.184 25.004 107.344 23.492C106.522 21.9613 106.112 20.1973 106.112 18.2C106.112 16.2027 106.522 14.448 107.344 12.936C108.184 11.4053 109.332 10.2107 110.788 9.352C112.244 8.49333 113.933 8.064 115.856 8.064C117.778 8.064 119.477 8.49333 120.952 9.352C122.426 10.2107 123.565 11.4053 124.368 12.936C125.189 14.448 125.6 16.2027 125.6 18.2C125.6 20.1973 125.189 21.9613 124.368 23.492C123.565 25.004 122.426 26.1893 120.952 27.048C119.477 27.9067 117.778 28.336 115.856 28.336ZM115.856 24.556C116.994 24.556 117.965 24.2947 118.768 23.772C119.589 23.2493 120.224 22.5213 120.672 21.588C121.12 20.636 121.344 19.5067 121.344 18.2C121.344 16.8933 121.12 15.7733 120.672 14.84C120.224 13.888 119.589 13.16 118.768 12.656C117.965 12.1333 116.994 11.872 115.856 11.872C114.754 11.872 113.793 12.1333 112.972 12.656C112.15 13.16 111.516 13.888 111.068 14.84C110.62 15.7733 110.396 16.8933 110.396 18.2C110.396 19.5067 110.62 20.636 111.068 21.588C111.516 22.5213 112.15 23.2493 112.972 23.772C113.793 24.2947 114.754 24.556 115.856 24.556ZM140.524 28.336C139.086 28.336 137.836 28.0747 136.772 27.552C135.708 27.0293 134.886 26.3013 134.308 25.368C133.729 24.4347 133.44 23.352 133.44 22.12H135.904C135.904 22.8853 136.081 23.5947 136.436 24.248C136.79 24.8827 137.304 25.396 137.976 25.788C138.666 26.1613 139.516 26.348 140.524 26.348C141.401 26.348 142.148 26.208 142.764 25.928C143.398 25.6293 143.874 25.228 144.192 24.724C144.528 24.22 144.696 23.6507 144.696 23.016C144.696 22.2507 144.528 21.6347 144.192 21.168C143.874 20.6827 143.436 20.2907 142.876 19.992C142.316 19.6933 141.662 19.432 140.916 19.208C140.188 18.9653 139.422 18.7133 138.62 18.452C137.07 17.9293 135.932 17.276 135.204 16.492C134.476 15.708 134.112 14.6907 134.112 13.44C134.112 12.376 134.354 11.4427 134.84 10.64C135.344 9.83733 136.053 9.212 136.968 8.764C137.901 8.29733 139.002 8.064 140.272 8.064C141.522 8.064 142.605 8.29733 143.52 8.764C144.453 9.23067 145.181 9.87467 145.704 10.696C146.226 11.4987 146.488 12.432 146.488 13.496H144.024C144.024 12.9547 143.884 12.4227 143.604 11.9C143.324 11.3773 142.894 10.948 142.316 10.612C141.756 10.2573 141.046 10.08 140.188 10.08C139.478 10.0613 138.844 10.1827 138.284 10.444C137.742 10.6867 137.313 11.0413 136.996 11.508C136.697 11.9747 136.548 12.544 136.548 13.216C136.548 13.8507 136.678 14.364 136.94 14.756C137.22 15.148 137.612 15.484 138.116 15.764C138.638 16.0253 139.245 16.268 139.936 16.492C140.626 16.716 141.392 16.968 142.232 17.248C143.184 17.5653 144.024 17.9573 144.752 18.424C145.498 18.872 146.077 19.4507 146.488 20.16C146.917 20.8693 147.132 21.7747 147.132 22.876C147.132 23.8093 146.88 24.696 146.376 25.536C145.89 26.3573 145.162 27.0293 144.192 27.552C143.221 28.0747 141.998 28.336 140.524 28.336ZM149.882 28V13.888H152.01L152.15 15.904C152.598 15.176 153.195 14.6067 153.942 14.196C154.707 13.7667 155.538 13.552 156.434 13.552C157.162 13.552 157.815 13.6547 158.394 13.86C158.991 14.0467 159.514 14.3453 159.962 14.756C160.41 15.148 160.774 15.652 161.054 16.268C161.539 15.4093 162.202 14.7467 163.042 14.28C163.901 13.7947 164.815 13.552 165.786 13.552C166.869 13.552 167.811 13.776 168.614 14.224C169.435 14.6533 170.061 15.316 170.49 16.212C170.938 17.0893 171.162 18.2093 171.162 19.572V28H168.838V19.824C168.838 18.4053 168.549 17.3413 167.97 16.632C167.391 15.9227 166.579 15.568 165.534 15.568C164.806 15.568 164.153 15.764 163.574 16.156C162.995 16.5293 162.538 17.08 162.202 17.808C161.866 18.536 161.698 19.432 161.698 20.496V28H159.346V19.824C159.346 18.4053 159.057 17.3413 158.478 16.632C157.899 15.9227 157.078 15.568 156.014 15.568C155.305 15.568 154.661 15.764 154.082 16.156C153.522 16.5293 153.074 17.08 152.738 17.808C152.402 18.536 152.234 19.432 152.234 20.496V28H149.882ZM178.911 28.336C177.773 28.336 176.821 28.14 176.055 27.748C175.29 27.3373 174.721 26.8053 174.347 26.152C173.974 25.48 173.787 24.752 173.787 23.968C173.787 23.016 174.03 22.2133 174.515 21.56C175.019 20.888 175.719 20.384 176.615 20.048C177.53 19.6933 178.603 19.516 179.835 19.516H183.559C183.559 18.6387 183.419 17.9107 183.139 17.332C182.878 16.7347 182.486 16.2867 181.963 15.988C181.459 15.6893 180.825 15.54 180.059 15.54C179.163 15.54 178.389 15.764 177.735 16.212C177.082 16.66 176.681 17.3227 176.531 18.2H174.123C174.235 17.192 174.571 16.352 175.131 15.68C175.71 14.9893 176.438 14.4667 177.315 14.112C178.193 13.7387 179.107 13.552 180.059 13.552C181.366 13.552 182.449 13.7947 183.307 14.28C184.185 14.7467 184.838 15.4093 185.267 16.268C185.697 17.108 185.911 18.1067 185.911 19.264V28H183.811L183.671 25.508C183.485 25.9 183.242 26.2733 182.943 26.628C182.663 26.964 182.327 27.2627 181.935 27.524C181.543 27.7667 181.095 27.9627 180.591 28.112C180.106 28.2613 179.546 28.336 178.911 28.336ZM179.275 26.348C179.929 26.348 180.517 26.2173 181.039 25.956C181.581 25.676 182.038 25.3027 182.411 24.836C182.785 24.3507 183.065 23.8187 183.251 23.24C183.457 22.6613 183.559 22.0547 183.559 21.42V21.336H180.031C179.117 21.336 178.379 21.448 177.819 21.672C177.259 21.8773 176.858 22.176 176.615 22.568C176.373 22.9413 176.251 23.3707 176.251 23.856C176.251 24.36 176.363 24.7987 176.587 25.172C176.83 25.5453 177.175 25.8347 177.623 26.04C178.09 26.2453 178.641 26.348 179.275 26.348ZM189.05 28V13.888H191.178L191.346 16.576C191.663 15.9413 192.065 15.4 192.55 14.952C193.054 14.504 193.651 14.1587 194.342 13.916C195.051 13.6733 195.854 13.552 196.75 13.552V16.016H195.882C195.285 16.016 194.715 16.1 194.174 16.268C193.633 16.4173 193.147 16.6693 192.718 17.024C192.307 17.3787 191.981 17.864 191.738 18.48C191.514 19.0773 191.402 19.824 191.402 20.72V28H189.05ZM204.457 28C203.617 28 202.889 27.8693 202.273 27.608C201.657 27.3467 201.181 26.908 200.845 26.292C200.528 25.6573 200.369 24.808 200.369 23.744V15.876H197.905V13.888H200.369L200.677 10.472H202.721V13.888H206.809V15.876H202.721V23.744C202.721 24.6213 202.898 25.2187 203.253 25.536C203.608 25.8347 204.233 25.984 205.129 25.984H206.641V28H204.457ZM216.455 28V8.4H219.199L226.115 22.092L233.059 8.4H235.831V28H233.479V12.6L227.011 25.256H225.247L218.807 12.656V28H216.455ZM245.546 28.336C244.221 28.336 243.045 28.028 242.018 27.412C241.01 26.796 240.217 25.9373 239.638 24.836C239.06 23.716 238.77 22.4187 238.77 20.944C238.77 19.4507 239.05 18.1533 239.61 17.052C240.189 15.9507 240.992 15.092 242.018 14.476C243.064 13.86 244.258 13.552 245.602 13.552C246.984 13.552 248.15 13.86 249.102 14.476C250.073 15.092 250.81 15.904 251.314 16.912C251.837 17.9013 252.098 18.9933 252.098 20.188C252.098 20.3747 252.098 20.5707 252.098 20.776C252.098 20.9813 252.089 21.2147 252.07 21.476H240.534V19.656H249.802C249.746 18.368 249.317 17.36 248.514 16.632C247.73 15.904 246.741 15.54 245.546 15.54C244.744 15.54 243.997 15.7267 243.306 16.1C242.634 16.4547 242.093 16.9867 241.682 17.696C241.272 18.3867 241.066 19.2547 241.066 20.3V21.084C241.066 22.2413 241.272 23.212 241.682 23.996C242.112 24.78 242.662 25.368 243.334 25.76C244.025 26.152 244.762 26.348 245.546 26.348C246.536 26.348 247.348 26.1333 247.982 25.704C248.636 25.256 249.102 24.6587 249.382 23.912H251.706C251.482 24.752 251.09 25.508 250.53 26.18C249.97 26.852 249.27 27.384 248.43 27.776C247.609 28.1493 246.648 28.336 245.546 28.336ZM260.989 28.336C259.626 28.336 258.431 28.0187 257.405 27.384C256.378 26.7307 255.585 25.844 255.025 24.724C254.465 23.604 254.185 22.3347 254.185 20.916C254.185 19.4973 254.465 18.2373 255.025 17.136C255.585 16.016 256.378 15.1387 257.405 14.504C258.45 13.8693 259.654 13.552 261.017 13.552C262.174 13.552 263.182 13.7853 264.041 14.252C264.918 14.7187 265.59 15.372 266.057 16.212V7.84H268.409V28H266.281L266.085 25.676C265.786 26.1427 265.403 26.5813 264.937 26.992C264.47 27.384 263.91 27.7107 263.257 27.972C262.603 28.2147 261.847 28.336 260.989 28.336ZM261.269 26.292C262.202 26.292 263.023 26.068 263.733 25.62C264.442 25.172 264.993 24.556 265.385 23.772C265.777 22.9693 265.973 22.0267 265.973 20.944C265.973 19.88 265.777 18.9467 265.385 18.144C264.993 17.3413 264.442 16.716 263.733 16.268C263.023 15.82 262.202 15.596 261.269 15.596C260.354 15.596 259.542 15.82 258.833 16.268C258.123 16.716 257.573 17.3413 257.181 18.144C256.789 18.9467 256.593 19.88 256.593 20.944C256.593 22.0267 256.789 22.9693 257.181 23.772C257.573 24.556 258.123 25.172 258.833 25.62C259.542 26.068 260.354 26.292 261.269 26.292ZM272.051 28V13.888H274.403V28H272.051ZM273.227 10.892C272.761 10.892 272.369 10.7427 272.051 10.444C271.753 10.1267 271.603 9.73467 271.603 9.268C271.603 8.80133 271.753 8.428 272.051 8.148C272.369 7.84933 272.761 7.7 273.227 7.7C273.675 7.7 274.058 7.84933 274.375 8.148C274.693 8.428 274.851 8.80133 274.851 9.268C274.851 9.73467 274.693 10.1267 274.375 10.444C274.058 10.7427 273.675 10.892 273.227 10.892ZM284.41 28.336C283.084 28.336 281.89 28.028 280.826 27.412C279.78 26.796 278.959 25.9373 278.362 24.836C277.764 23.716 277.466 22.428 277.466 20.972C277.466 19.4787 277.764 18.1813 278.362 17.08C278.959 15.9787 279.78 15.12 280.826 14.504C281.89 13.8693 283.084 13.552 284.41 13.552C286.09 13.552 287.49 13.9907 288.61 14.868C289.73 15.7267 290.439 16.884 290.738 18.34H288.33C288.143 17.4627 287.686 16.7813 286.958 16.296C286.23 15.8107 285.371 15.568 284.382 15.568C283.579 15.568 282.832 15.7733 282.142 16.184C281.451 16.576 280.9 17.1733 280.49 17.976C280.079 18.7787 279.874 19.768 279.874 20.944C279.874 21.8213 279.995 22.6053 280.238 23.296C280.48 23.968 280.807 24.528 281.218 24.976C281.628 25.424 282.104 25.7693 282.646 26.012C283.206 26.236 283.784 26.348 284.382 26.348C285.054 26.348 285.66 26.2453 286.202 26.04C286.743 25.816 287.2 25.4893 287.574 25.06C287.947 24.6307 288.199 24.1267 288.33 23.548H290.738C290.439 24.9667 289.72 26.124 288.582 27.02C287.462 27.8973 286.071 28.336 284.41 28.336ZM298.169 28.336C297.031 28.336 296.079 28.14 295.313 27.748C294.548 27.3373 293.979 26.8053 293.605 26.152C293.232 25.48 293.045 24.752 293.045 23.968C293.045 23.016 293.288 22.2133 293.773 21.56C294.277 20.888 294.977 20.384 295.873 20.048C296.788 19.6933 297.861 19.516 299.093 19.516H302.817C302.817 18.6387 302.677 17.9107 302.397 17.332C302.136 16.7347 301.744 16.2867 301.221 15.988C300.717 15.6893 300.083 15.54 299.317 15.54C298.421 15.54 297.647 15.764 296.993 16.212C296.34 16.66 295.939 17.3227 295.789 18.2H293.381C293.493 17.192 293.829 16.352 294.389 15.68C294.968 14.9893 295.696 14.4667 296.573 14.112C297.451 13.7387 298.365 13.552 299.317 13.552C300.624 13.552 301.707 13.7947 302.565 14.28C303.443 14.7467 304.096 15.4093 304.525 16.268C304.955 17.108 305.169 18.1067 305.169 19.264V28H303.069L302.929 25.508C302.743 25.9 302.5 26.2733 302.201 26.628C301.921 26.964 301.585 27.2627 301.193 27.524C300.801 27.7667 300.353 27.9627 299.849 28.112C299.364 28.2613 298.804 28.336 298.169 28.336ZM298.533 26.348C299.187 26.348 299.775 26.2173 300.297 25.956C300.839 25.676 301.296 25.3027 301.669 24.836C302.043 24.3507 302.323 23.8187 302.509 23.24C302.715 22.6613 302.817 22.0547 302.817 21.42V21.336H299.289C298.375 21.336 297.637 21.448 297.077 21.672C296.517 21.8773 296.116 22.176 295.873 22.568C295.631 22.9413 295.509 23.3707 295.509 23.856C295.509 24.36 295.621 24.7987 295.845 25.172C296.088 25.5453 296.433 25.8347 296.881 26.04C297.348 26.2453 297.899 26.348 298.533 26.348ZM308.308 28V7.84H310.66V28H308.308ZM321.12 28V8.4H323.472V28H321.12ZM327.042 28V13.888H329.17L329.282 16.352C329.73 15.4747 330.365 14.7933 331.186 14.308C332.026 13.804 332.978 13.552 334.042 13.552C335.143 13.552 336.095 13.776 336.898 14.224C337.701 14.6533 338.326 15.316 338.774 16.212C339.222 17.0893 339.446 18.2093 339.446 19.572V28H337.094V19.824C337.094 18.4053 336.777 17.3413 336.142 16.632C335.526 15.9227 334.649 15.568 333.51 15.568C332.726 15.568 332.026 15.764 331.41 16.156C330.794 16.5293 330.299 17.08 329.926 17.808C329.571 18.5173 329.394 19.404 329.394 20.468V28H327.042ZM348.164 28C347.324 28 346.596 27.8693 345.98 27.608C345.364 27.3467 344.888 26.908 344.552 26.292C344.235 25.6573 344.076 24.808 344.076 23.744V15.876H341.612V13.888H344.076L344.384 10.472H346.428V13.888H350.516V15.876H346.428V23.744C346.428 24.6213 346.605 25.2187 346.96 25.536C347.315 25.8347 347.94 25.984 348.836 25.984H350.348V28H348.164ZM358.89 28.336C357.565 28.336 356.389 28.028 355.362 27.412C354.354 26.796 353.561 25.9373 352.982 24.836C352.404 23.716 352.114 22.4187 352.114 20.944C352.114 19.4507 352.394 18.1533 352.954 17.052C353.533 15.9507 354.336 15.092 355.362 14.476C356.408 13.86 357.602 13.552 358.946 13.552C360.328 13.552 361.494 13.86 362.446 14.476C363.417 15.092 364.154 15.904 364.658 16.912C365.181 17.9013 365.442 18.9933 365.442 20.188C365.442 20.3747 365.442 20.5707 365.442 20.776C365.442 20.9813 365.433 21.2147 365.414 21.476H353.878V19.656H363.146C363.09 18.368 362.661 17.36 361.858 16.632C361.074 15.904 360.085 15.54 358.89 15.54C358.088 15.54 357.341 15.7267 356.65 16.1C355.978 16.4547 355.437 16.9867 355.026 17.696C354.616 18.3867 354.41 19.2547 354.41 20.3V21.084C354.41 22.2413 354.616 23.212 355.026 23.996C355.456 24.78 356.006 25.368 356.678 25.76C357.369 26.152 358.106 26.348 358.89 26.348C359.88 26.348 360.692 26.1333 361.326 25.704C361.98 25.256 362.446 24.6587 362.726 23.912H365.05C364.826 24.752 364.434 25.508 363.874 26.18C363.314 26.852 362.614 27.384 361.774 27.776C360.953 28.1493 359.992 28.336 358.89 28.336ZM368.116 28V7.84H370.468V28H368.116ZM373.851 28V7.84H376.203V28H373.851ZM379.809 28V13.888H382.161V28H379.809ZM380.985 10.892C380.518 10.892 380.126 10.7427 379.809 10.444C379.51 10.1267 379.361 9.73467 379.361 9.268C379.361 8.80133 379.51 8.428 379.809 8.148C380.126 7.84933 380.518 7.7 380.985 7.7C381.433 7.7 381.816 7.84933 382.133 8.148C382.45 8.428 382.609 8.80133 382.609 9.268C382.609 9.73467 382.45 10.1267 382.133 10.444C381.816 10.7427 381.433 10.892 380.985 10.892ZM391.384 34.496C390.114 34.496 388.985 34.328 387.996 33.992C387.025 33.6747 386.269 33.18 385.728 32.508C385.186 31.836 384.916 31.0053 384.916 30.016C384.916 29.5867 385 29.1293 385.168 28.644C385.354 28.1587 385.662 27.6827 386.092 27.216C386.54 26.7493 387.165 26.3293 387.968 25.956L389.592 26.908C388.602 27.3187 387.958 27.7853 387.66 28.308C387.361 28.8493 387.212 29.344 387.212 29.792C387.212 30.408 387.389 30.9213 387.744 31.332C388.098 31.7427 388.593 32.0507 389.228 32.256C389.862 32.4613 390.581 32.564 391.384 32.564C392.186 32.564 392.877 32.452 393.456 32.228C394.034 32.004 394.482 31.6867 394.8 31.276C395.117 30.8653 395.276 30.38 395.276 29.82C395.276 29.1667 395.033 28.616 394.548 28.168C394.062 27.7387 393.138 27.4867 391.776 27.412C390.674 27.3373 389.75 27.2347 389.004 27.104C388.257 26.9733 387.641 26.824 387.156 26.656C386.67 26.4693 386.26 26.264 385.924 26.04C385.606 25.816 385.317 25.5827 385.056 25.34V24.696L387.772 22.008L389.816 22.736L387.016 25.256L387.38 24.276C387.585 24.4253 387.781 24.5653 387.968 24.696C388.154 24.8267 388.406 24.9387 388.724 25.032C389.041 25.1253 389.48 25.2093 390.04 25.284C390.618 25.3587 391.374 25.4333 392.308 25.508C393.596 25.6013 394.622 25.8253 395.388 26.18C396.172 26.5347 396.732 27.0107 397.068 27.608C397.422 28.2053 397.6 28.9147 397.6 29.736C397.6 30.5387 397.376 31.2947 396.928 32.004C396.498 32.732 395.826 33.3293 394.912 33.796C393.997 34.2627 392.821 34.496 391.384 34.496ZM391.356 23.576C390.18 23.576 389.172 23.352 388.332 22.904C387.51 22.456 386.885 21.8587 386.456 21.112C386.026 20.3467 385.812 19.4973 385.812 18.564C385.812 17.6307 386.026 16.7907 386.456 16.044C386.904 15.2973 387.538 14.7 388.36 14.252C389.181 13.7853 390.18 13.552 391.356 13.552C392.532 13.552 393.53 13.7853 394.352 14.252C395.173 14.7 395.798 15.2973 396.228 16.044C396.657 16.7907 396.872 17.6307 396.872 18.564C396.872 19.4973 396.657 20.3467 396.228 21.112C395.798 21.8587 395.173 22.456 394.352 22.904C393.53 23.352 392.532 23.576 391.356 23.576ZM391.356 21.644C392.364 21.644 393.157 21.3827 393.736 20.86C394.314 20.3373 394.604 19.572 394.604 18.564C394.604 17.5747 394.314 16.8187 393.736 16.296C393.157 15.7733 392.364 15.512 391.356 15.512C390.366 15.512 389.564 15.7733 388.948 16.296C388.35 16.8187 388.052 17.5747 388.052 18.564C388.052 19.572 388.35 20.3373 388.948 20.86C389.545 21.3827 390.348 21.644 391.356 21.644ZM393.652 15.876L392.952 13.888H398.72V15.652L393.652 15.876ZM406.566 28.336C405.241 28.336 404.065 28.028 403.038 27.412C402.03 26.796 401.237 25.9373 400.658 24.836C400.079 23.716 399.79 22.4187 399.79 20.944C399.79 19.4507 400.07 18.1533 400.63 17.052C401.209 15.9507 402.011 15.092 403.038 14.476C404.083 13.86 405.278 13.552 406.622 13.552C408.003 13.552 409.17 13.86 410.122 14.476C411.093 15.092 411.83 15.904 412.334 16.912C412.857 17.9013 413.118 18.9933 413.118 20.188C413.118 20.3747 413.118 20.5707 413.118 20.776C413.118 20.9813 413.109 21.2147 413.09 21.476H401.554V19.656H410.822C410.766 18.368 410.337 17.36 409.534 16.632C408.75 15.904 407.761 15.54 406.566 15.54C405.763 15.54 405.017 15.7267 404.326 16.1C403.654 16.4547 403.113 16.9867 402.702 17.696C402.291 18.3867 402.086 19.2547 402.086 20.3V21.084C402.086 22.2413 402.291 23.212 402.702 23.996C403.131 24.78 403.682 25.368 404.354 25.76C405.045 26.152 405.782 26.348 406.566 26.348C407.555 26.348 408.367 26.1333 409.002 25.704C409.655 25.256 410.122 24.6587 410.402 23.912H412.726C412.502 24.752 412.11 25.508 411.55 26.18C410.99 26.852 410.29 27.384 409.45 27.776C408.629 28.1493 407.667 28.336 406.566 28.336ZM415.792 28V13.888H417.92L418.032 16.352C418.48 15.4747 419.115 14.7933 419.936 14.308C420.776 13.804 421.728 13.552 422.792 13.552C423.893 13.552 424.845 13.776 425.648 14.224C426.451 14.6533 427.076 15.316 427.524 16.212C427.972 17.0893 428.196 18.2093 428.196 19.572V28H425.844V19.824C425.844 18.4053 425.527 17.3413 424.892 16.632C424.276 15.9227 423.399 15.568 422.26 15.568C421.476 15.568 420.776 15.764 420.16 16.156C419.544 16.5293 419.049 17.08 418.676 17.808C418.321 18.5173 418.144 19.404 418.144 20.468V28H415.792ZM437.726 28.336C436.401 28.336 435.206 28.028 434.142 27.412C433.097 26.796 432.275 25.9373 431.678 24.836C431.081 23.716 430.782 22.428 430.782 20.972C430.782 19.4787 431.081 18.1813 431.678 17.08C432.275 15.9787 433.097 15.12 434.142 14.504C435.206 13.8693 436.401 13.552 437.726 13.552C439.406 13.552 440.806 13.9907 441.926 14.868C443.046 15.7267 443.755 16.884 444.054 18.34H441.646C441.459 17.4627 441.002 16.7813 440.274 16.296C439.546 15.8107 438.687 15.568 437.698 15.568C436.895 15.568 436.149 15.7733 435.458 16.184C434.767 16.576 434.217 17.1733 433.806 17.976C433.395 18.7787 433.19 19.768 433.19 20.944C433.19 21.8213 433.311 22.6053 433.554 23.296C433.797 23.968 434.123 24.528 434.534 24.976C434.945 25.424 435.421 25.7693 435.962 26.012C436.522 26.236 437.101 26.348 437.698 26.348C438.37 26.348 438.977 26.2453 439.518 26.04C440.059 25.816 440.517 25.4893 440.89 25.06C441.263 24.6307 441.515 24.1267 441.646 23.548H444.054C443.755 24.9667 443.037 26.124 441.898 27.02C440.778 27.8973 439.387 28.336 437.726 28.336ZM453.082 28.336C451.756 28.336 450.58 28.028 449.554 27.412C448.546 26.796 447.752 25.9373 447.174 24.836C446.595 23.716 446.306 22.4187 446.306 20.944C446.306 19.4507 446.586 18.1533 447.146 17.052C447.724 15.9507 448.527 15.092 449.554 14.476C450.599 13.86 451.794 13.552 453.138 13.552C454.519 13.552 455.686 13.86 456.638 14.476C457.608 15.092 458.346 15.904 458.85 16.912C459.372 17.9013 459.634 18.9933 459.634 20.188C459.634 20.3747 459.634 20.5707 459.634 20.776C459.634 20.9813 459.624 21.2147 459.606 21.476H448.07V19.656H457.338C457.282 18.368 456.852 17.36 456.05 16.632C455.266 15.904 454.276 15.54 453.082 15.54C452.279 15.54 451.532 15.7267 450.842 16.1C450.17 16.4547 449.628 16.9867 449.218 17.696C448.807 18.3867 448.602 19.2547 448.602 20.3V21.084C448.602 22.2413 448.807 23.212 449.218 23.996C449.647 24.78 450.198 25.368 450.87 25.76C451.56 26.152 452.298 26.348 453.082 26.348C454.071 26.348 454.883 26.1333 455.518 25.704C456.171 25.256 456.638 24.6587 456.918 23.912H459.242C459.018 24.752 458.626 25.508 458.066 26.18C457.506 26.852 456.806 27.384 455.966 27.776C455.144 28.1493 454.183 28.336 453.082 28.336ZM469.385 28V8.4H475.769C477.318 8.4 478.588 8.66133 479.577 9.184C480.585 9.688 481.322 10.3693 481.789 11.228C482.274 12.0867 482.517 13.0667 482.517 14.168C482.517 15.232 482.274 16.2027 481.789 17.08C481.322 17.9387 480.594 18.6293 479.605 19.152C478.616 19.6747 477.337 19.936 475.769 19.936H471.737V28H469.385ZM471.737 17.948H475.741C477.309 17.948 478.429 17.6027 479.101 16.912C479.773 16.2213 480.109 15.3067 480.109 14.168C480.109 12.9547 479.773 12.0213 479.101 11.368C478.429 10.696 477.309 10.36 475.741 10.36H471.737V17.948ZM484.987 28V7.84H487.339V28H484.987ZM495.314 28.336C494.175 28.336 493.223 28.14 492.458 27.748C491.692 27.3373 491.123 26.8053 490.75 26.152C490.376 25.48 490.19 24.752 490.19 23.968C490.19 23.016 490.432 22.2133 490.918 21.56C491.422 20.888 492.122 20.384 493.018 20.048C493.932 19.6933 495.006 19.516 496.238 19.516H499.962C499.962 18.6387 499.822 17.9107 499.542 17.332C499.28 16.7347 498.888 16.2867 498.366 15.988C497.862 15.6893 497.227 15.54 496.462 15.54C495.566 15.54 494.791 15.764 494.138 16.212C493.484 16.66 493.083 17.3227 492.934 18.2H490.526C490.638 17.192 490.974 16.352 491.534 15.68C492.112 14.9893 492.84 14.4667 493.718 14.112C494.595 13.7387 495.51 13.552 496.462 13.552C497.768 13.552 498.851 13.7947 499.71 14.28C500.587 14.7467 501.24 15.4093 501.67 16.268C502.099 17.108 502.314 18.1067 502.314 19.264V28H500.214L500.074 25.508C499.887 25.9 499.644 26.2733 499.346 26.628C499.066 26.964 498.73 27.2627 498.338 27.524C497.946 27.7667 497.498 27.9627 496.994 28.112C496.508 28.2613 495.948 28.336 495.314 28.336ZM495.678 26.348C496.331 26.348 496.919 26.2173 497.442 25.956C497.983 25.676 498.44 25.3027 498.814 24.836C499.187 24.3507 499.467 23.8187 499.654 23.24C499.859 22.6613 499.962 22.0547 499.962 21.42V21.336H496.434C495.519 21.336 494.782 21.448 494.222 21.672C493.662 21.8773 493.26 22.176 493.018 22.568C492.775 22.9413 492.654 23.3707 492.654 23.856C492.654 24.36 492.766 24.7987 492.99 25.172C493.232 25.5453 493.578 25.8347 494.026 26.04C494.492 26.2453 495.043 26.348 495.678 26.348ZM510.613 28C509.773 28 509.045 27.8693 508.429 27.608C507.813 27.3467 507.337 26.908 507.001 26.292C506.684 25.6573 506.525 24.808 506.525 23.744V15.876H504.061V13.888H506.525L506.833 10.472H508.877V13.888H512.965V15.876H508.877V23.744C508.877 24.6213 509.055 25.2187 509.409 25.536C509.764 25.8347 510.389 25.984 511.285 25.984H512.797V28H510.613ZM516.318 28V11.704C516.318 10.808 516.468 10.08 516.766 9.52C517.065 8.94133 517.504 8.52133 518.082 8.26C518.68 7.98 519.408 7.84 520.266 7.84H521.862V9.856H520.63C519.94 9.856 519.436 9.996 519.118 10.276C518.82 10.556 518.67 11.0507 518.67 11.76V28H516.318ZM514.162 15.876V13.888H522.226V15.876H514.162ZM530.303 28.336C528.996 28.336 527.82 28.0373 526.775 27.44C525.73 26.824 524.908 25.9653 524.311 24.864C523.714 23.744 523.415 22.4467 523.415 20.972C523.415 19.46 523.714 18.1533 524.311 17.052C524.927 15.932 525.758 15.0733 526.803 14.476C527.867 13.86 529.052 13.552 530.359 13.552C531.703 13.552 532.888 13.86 533.915 14.476C534.96 15.0733 535.782 15.932 536.379 17.052C536.995 18.1533 537.303 19.4507 537.303 20.944C537.303 22.4373 536.995 23.744 536.379 24.864C535.763 25.9653 534.932 26.824 533.887 27.44C532.842 28.0373 531.647 28.336 530.303 28.336ZM530.331 26.32C531.134 26.32 531.88 26.124 532.571 25.732C533.262 25.3213 533.822 24.7147 534.251 23.912C534.68 23.1093 534.895 22.12 534.895 20.944C534.895 19.7493 534.68 18.76 534.251 17.976C533.84 17.1733 533.29 16.576 532.599 16.184C531.927 15.7733 531.18 15.568 530.359 15.568C529.575 15.568 528.828 15.7733 528.119 16.184C527.428 16.576 526.868 17.1733 526.439 17.976C526.028 18.76 525.823 19.7493 525.823 20.944C525.823 22.12 526.028 23.1093 526.439 23.912C526.868 24.7147 527.419 25.3213 528.091 25.732C528.782 26.124 529.528 26.32 530.331 26.32ZM540.101 28V13.888H542.229L542.397 16.576C542.714 15.9413 543.115 15.4 543.601 14.952C544.105 14.504 544.702 14.1587 545.393 13.916C546.102 13.6733 546.905 13.552 547.801 13.552V16.016H546.933C546.335 16.016 545.766 16.1 545.225 16.268C544.683 16.4173 544.198 16.6693 543.769 17.024C543.358 17.3787 543.031 17.864 542.789 18.48C542.565 19.0773 542.453 19.824 542.453 20.72V28H540.101ZM549.964 28V13.888H552.092L552.232 15.904C552.68 15.176 553.277 14.6067 554.024 14.196C554.789 13.7667 555.62 13.552 556.516 13.552C557.244 13.552 557.897 13.6547 558.476 13.86C559.073 14.0467 559.596 14.3453 560.044 14.756C560.492 15.148 560.856 15.652 561.136 16.268C561.621 15.4093 562.284 14.7467 563.124 14.28C563.983 13.7947 564.897 13.552 565.868 13.552C566.951 13.552 567.893 13.776 568.696 14.224C569.517 14.6533 570.143 15.316 570.572 16.212C571.02 17.0893 571.244 18.2093 571.244 19.572V28H568.92V19.824C568.92 18.4053 568.631 17.3413 568.052 16.632C567.473 15.9227 566.661 15.568 565.616 15.568C564.888 15.568 564.235 15.764 563.656 16.156C563.077 16.5293 562.62 17.08 562.284 17.808C561.948 18.536 561.78 19.432 561.78 20.496V28H559.428V19.824C559.428 18.4053 559.139 17.3413 558.56 16.632C557.981 15.9227 557.16 15.568 556.096 15.568C555.387 15.568 554.743 15.764 554.164 16.156C553.604 16.5293 553.156 17.08 552.82 17.808C552.484 18.536 552.316 19.432 552.316 20.496V28H549.964Z" fill="#6750A4"/>
</svg>
